<svg width="28" height="28" viewBox="0 0 28 28" fill="none" xmlns="http://www.w3.org/2000/svg">
<path d="M4.66797 22.1673V11.6673C4.66797 11.2979 4.7508 10.9479 4.91647 10.6173C5.08214 10.2868 5.31041 10.0145 5.6013 9.80065L12.6013 4.55065C13.0096 4.23954 13.4763 4.08398 14.0013 4.08398C14.5263 4.08398 14.993 4.23954 15.4013 4.55065L22.4013 9.80065C22.693 10.0145 22.9216 10.2868 23.0873 10.6173C23.253 10.9479 23.3354 11.2979 23.3346 11.6673V22.1673C23.3346 22.809 23.106 23.3585 22.6486 23.8158C22.1913 24.2732 21.6422 24.5014 21.0013 24.5007H17.5013C17.1707 24.5007 16.8939 24.3887 16.6706 24.1647C16.4474 23.9407 16.3354 23.6638 16.3346 23.334V17.5007C16.3346 17.1701 16.2226 16.8932 15.9986 16.67C15.7746 16.4468 15.4977 16.3348 15.168 16.334H12.8346C12.5041 16.334 12.2272 16.446 12.004 16.67C11.7807 16.894 11.6687 17.1709 11.668 17.5007V23.334C11.668 23.6645 11.556 23.9418 11.332 24.1658C11.108 24.3898 10.8311 24.5014 10.5013 24.5007H7.0013C6.35964 24.5007 5.81052 24.2724 5.35397 23.8158C4.89741 23.3593 4.66875 22.8098 4.66797 22.1673Z" fill="#F5F5F5"/>
</svg>
