<svg width="28" height="28" viewBox="0 0 28 28" fill="none" xmlns="http://www.w3.org/2000/svg">
<path fill-rule="evenodd" clip-rule="evenodd" d="M13.9987 2.33398C20.4422 2.33398 25.6654 7.55715 25.6654 14.0007C25.6654 20.4442 20.4422 25.6673 13.9987 25.6673C7.5552 25.6673 2.33203 20.4442 2.33203 14.0007C2.33203 7.55715 7.5552 2.33398 13.9987 2.33398ZM16.3134 16.6257C15.695 17.1717 14.8865 17.5007 13.9987 17.5007C13.1463 17.5006 12.3233 17.1894 11.684 16.6257C11.452 16.4208 11.148 16.3166 10.8391 16.3358C10.5302 16.3551 10.2415 16.4963 10.0367 16.7283C9.83186 16.9604 9.7276 17.2643 9.74686 17.5732C9.76611 17.8822 9.9073 18.1708 10.1394 18.3757C11.2052 19.3156 12.5776 19.8342 13.9987 19.834C15.4202 19.8364 16.7933 19.3175 17.858 18.3757C18.0901 18.1708 18.2313 17.8822 18.2505 17.5732C18.2698 17.2643 18.1655 16.9604 17.9607 16.7283C17.7559 16.4963 17.4672 16.3551 17.1583 16.3358C16.8494 16.3166 16.5454 16.4208 16.3134 16.6257ZM9.91536 9.33398C8.6472 9.33398 7.63103 10.1273 7.12236 11.1447C6.98864 11.4108 6.96179 11.718 7.04731 12.0034C7.13283 12.2887 7.32424 12.5305 7.58232 12.6792C7.8404 12.828 8.14559 12.8723 8.43534 12.8033C8.72509 12.7342 8.97745 12.557 9.1407 12.3078L9.20836 12.19C9.39736 11.812 9.6867 11.6673 9.91536 11.6673C10.1137 11.6673 10.361 11.7782 10.5465 12.0593L10.6224 12.19C10.7624 12.4641 11.0051 12.6718 11.2977 12.7678C11.5902 12.8637 11.9088 12.8402 12.184 12.7023C12.4592 12.5643 12.6688 12.3232 12.767 12.0315C12.8652 11.7397 12.8442 11.4209 12.7084 11.1447C12.1985 10.1273 11.1835 9.33398 9.91536 9.33398ZM18.082 9.33398C16.8139 9.33398 15.7989 10.1273 15.289 11.1447C15.1553 11.4108 15.1285 11.718 15.214 12.0034C15.2995 12.2887 15.4909 12.5305 15.749 12.6792C16.0071 12.828 16.3123 12.8723 16.602 12.8033C16.8918 12.7342 17.1441 12.557 17.3074 12.3078L17.375 12.19C17.564 11.812 17.8534 11.6673 18.082 11.6673C18.2804 11.6673 18.5277 11.7782 18.7132 12.0593L18.789 12.19C18.8569 12.3282 18.9515 12.4515 19.0674 12.553C19.1832 12.6544 19.3179 12.732 19.4639 12.7811C19.6098 12.8302 19.764 12.85 19.9176 12.8392C20.0712 12.8285 20.2211 12.7874 20.3588 12.7184C20.4964 12.6494 20.6191 12.5539 20.7196 12.4373C20.8202 12.3207 20.8966 12.1853 20.9446 12.039C20.9926 11.8927 21.0112 11.7384 20.9992 11.5849C20.9873 11.4314 20.9451 11.2818 20.875 11.1447C20.3664 10.1273 19.3502 9.33398 18.082 9.33398Z" fill="#F5F5F5"/>
</svg>
