<svg width="28" height="28" viewBox="0 0 28 28" fill="none" xmlns="http://www.w3.org/2000/svg">
<path fill-rule="evenodd" clip-rule="evenodd" d="M3.79297 13.9993C3.79297 11.2919 4.86849 8.6954 6.78292 6.78097C8.69735 4.86653 11.2939 3.79102 14.0013 3.79102C16.7087 3.79102 19.3053 4.86653 21.2197 6.78097C23.1341 8.6954 24.2096 11.2919 24.2096 13.9993C24.2096 16.7068 23.1341 19.3033 21.2197 21.2177C19.3053 23.1322 16.7087 24.2077 14.0013 24.2077C11.2939 24.2077 8.69735 23.1322 6.78292 21.2177C4.86849 19.3033 3.79297 16.7068 3.79297 13.9993ZM14.0013 7.29102C14.2334 7.29102 14.4559 7.3832 14.62 7.5473C14.7841 7.71139 14.8763 7.93395 14.8763 8.16602V13.9993C14.8763 14.2314 14.7841 14.454 14.62 14.6181C14.4559 14.7822 14.2334 14.8743 14.0013 14.8743C13.7692 14.8743 13.5467 14.7822 13.3826 14.6181C13.2185 14.454 13.1263 14.2314 13.1263 13.9993V8.16602C13.1263 7.93395 13.2185 7.71139 13.3826 7.5473C13.5467 7.3832 13.7692 7.29102 14.0013 7.29102ZM11.668 9.42835C11.668 9.21485 11.4463 9.07602 11.262 9.18102C10.1988 9.78557 9.36553 10.7248 8.89195 11.8525C8.41838 12.9801 8.33112 14.2327 8.64379 15.415C8.95646 16.5974 9.65149 17.6431 10.6206 18.3893C11.5896 19.1354 12.7783 19.54 14.0013 19.54C15.2243 19.54 16.413 19.1354 17.3821 18.3893C18.3511 17.6431 19.0461 16.5974 19.3588 15.415C19.6715 14.2327 19.5842 12.9801 19.1107 11.8525C18.6371 10.7248 17.8038 9.78557 16.7406 9.18102C16.5551 9.07602 16.3346 9.21602 16.3346 9.42835V10.868C16.3346 10.9578 16.3766 11.043 16.4455 11.1002C17.0398 11.6013 17.4657 12.2729 17.6655 13.0241C17.8654 13.7754 17.8295 14.5699 17.5628 15.3C17.296 16.0302 16.8113 16.6607 16.1743 17.1062C15.5372 17.5517 14.7787 17.7906 14.0013 17.7906C13.2239 17.7906 12.4654 17.5517 11.8283 17.1062C11.1913 16.6607 10.7066 16.0302 10.4399 15.3C10.1731 14.5699 10.1372 13.7754 10.3371 13.0241C10.5369 12.2729 10.9628 11.6013 11.5571 11.1002C11.5915 11.072 11.6192 11.0366 11.6384 10.9964C11.6575 10.9563 11.6676 10.9125 11.668 10.868V9.42835Z" fill="#F5F5F5"/>
</svg>
