<svg width="13" height="13" viewBox="0 0 13 13" fill="none" xmlns="http://www.w3.org/2000/svg">
<g clip-path="url(#clip0_453_5132)">
<path d="M2.80554 6.5C2.72122 6.17329 2.67756 5.83741 2.67554 5.5C2.67756 5.16259 2.72122 4.82671 2.80554 4.5H4.49554C4.45255 4.83167 4.42918 5.16558 4.42554 5.5C4.42918 5.83442 4.45255 6.16833 4.49554 6.5H5.50554C5.45658 6.16883 5.42986 5.83475 5.42554 5.5C5.42986 5.16525 5.45658 4.83117 5.50554 4.5H7.84554C7.89449 4.83117 7.92122 5.16525 7.92554 5.5C7.92122 5.83475 7.89449 6.16883 7.84554 6.5H8.85554C8.89852 6.16833 8.9219 5.83442 8.92554 5.5C8.9219 5.16558 8.89852 4.83167 8.85554 4.5H10.5455C10.6299 4.82671 10.6735 5.16259 10.6755 5.5C10.6735 5.83741 10.6299 6.17329 10.5455 6.5L11.6755 7V5.5C11.6755 4.17392 11.1488 2.90215 10.2111 1.96447C9.27339 1.02678 8.00162 0.5 6.67554 0.5C5.34945 0.5 4.07769 1.02678 3.14 1.96447C2.20232 2.90215 1.67554 4.17392 1.67554 5.5V7L2.80554 6.5ZM10.1355 3.5H8.66054C8.50381 2.88081 8.2721 2.28305 7.97054 1.72C8.88259 2.034 9.65112 2.66586 10.1355 3.5ZM6.67554 1.52C7.09544 2.126 7.41769 2.79412 7.63054 3.5H5.72054C5.93338 2.79412 6.25563 2.126 6.67554 1.52ZM5.38054 1.72C5.07898 2.28305 4.84726 2.88081 4.69054 3.5H3.21554C3.69891 2.66498 4.46781 2.03281 5.38054 1.72Z" fill="#A0A0A0"/>
<path d="M11.1755 7.5V11.5H2.17554V7.5H11.1755ZM11.1755 6.5H2.17554C1.91032 6.5 1.65597 6.60536 1.46843 6.79289C1.28089 6.98043 1.17554 7.23478 1.17554 7.5V11.5C1.17554 11.7652 1.28089 12.0196 1.46843 12.2071C1.65597 12.3946 1.91032 12.5 2.17554 12.5H11.1755C11.4408 12.5 11.6951 12.3946 11.8826 12.2071C12.0702 12.0196 12.1755 11.7652 12.1755 11.5V7.5C12.1755 7.23478 12.0702 6.98043 11.8826 6.79289C11.6951 6.60536 11.4408 6.5 11.1755 6.5Z" fill="#A0A0A0"/>
<path d="M4.17554 8.00013H5.17554V11.0001H4.17554V8.00013ZM8.67554 8.00013H6.67554V11.0001H7.67554V10.0001H8.67554C8.77453 10.002 8.87288 9.98381 8.9647 9.94677C9.05652 9.90973 9.13994 9.85455 9.20995 9.78454C9.27996 9.71452 9.33514 9.63111 9.37218 9.53929C9.40922 9.44747 9.42737 9.34912 9.42554 9.25013V8.75013C9.42737 8.65113 9.40922 8.55278 9.37218 8.46096C9.33514 8.36914 9.27996 8.28573 9.20995 8.21572C9.13994 8.1457 9.05652 8.09053 8.9647 8.05348C8.87288 8.01644 8.77453 7.99829 8.67554 8.00013ZM8.67554 9.50013H7.67554V8.50013H8.67554V9.50013Z" fill="#A0A0A0"/>
</g>
<defs>
<clipPath id="clip0_453_5132">
<rect width="12" height="12" fill="white" transform="translate(0.675537 0.5)"/>
</clipPath>
</defs>
</svg>
