<svg width="14" height="14" viewBox="0 0 14 14" fill="none" xmlns="http://www.w3.org/2000/svg">
<g clip-path="url(#clip0_453_5163)">
<path d="M3.84387 10.625H6.34387V12.625L5.09387 11.875L3.84387 12.625V10.625ZM10.8439 1.625H6.84387V12.625L8.09387 11.875L9.34387 12.625V11.625H10.8439C11.1091 11.625 11.3634 11.5196 11.551 11.3321C11.7385 11.1446 11.8439 10.8902 11.8439 10.625V2.625C11.8439 2.35978 11.7385 2.10543 11.551 1.91789C11.3634 1.73036 11.1091 1.625 10.8439 1.625ZM7.84387 3.625H8.84387V4.625H7.84387V3.625ZM7.84387 6.125H8.84387V7.125H7.84387V6.125ZM7.84387 8.625H8.84387V9.625H7.84387V8.625ZM2.84387 1.625C2.5789 1.62579 2.325 1.7314 2.13764 1.91877C1.95027 2.10613 1.84466 2.36003 1.84387 2.625V10.625C1.84466 10.89 1.95027 11.1439 2.13764 11.3312C2.325 11.5186 2.5789 11.6242 2.84387 11.625V2.625H6.34387V1.625H2.84387Z" fill="#A0A0A0"/>
<path d="M3.84387 3.625H4.84387V4.625H3.84387V3.625ZM3.84387 6.125H4.84387V7.125H3.84387V6.125ZM3.84387 8.625H4.84387V9.625H3.84387V8.625Z" fill="#A0A0A0"/>
</g>
<defs>
<clipPath id="clip0_453_5163">
<rect width="12" height="12" fill="white" transform="translate(0.843872 1.125)"/>
</clipPath>
</defs>
</svg>
