<svg width="14" height="14" viewBox="0 0 14 14" fill="none" xmlns="http://www.w3.org/2000/svg">
<path d="M3.67342 10.3074C3.25555 9.8895 2.92407 9.39342 2.69792 8.84745C2.47177 8.30148 2.35538 7.71631 2.35538 7.12536C2.35538 6.53441 2.47177 5.94924 2.69792 5.40327C2.92407 4.8573 3.25555 4.36122 3.67342 3.94336M10.0374 3.94336C10.4553 4.36122 10.7868 4.8573 11.0129 5.40327C11.2391 5.94924 11.3555 6.53441 11.3555 7.12536C11.3555 7.71631 11.2391 8.30148 11.0129 8.84745C10.7868 9.39342 10.4553 9.8895 10.0374 10.3074M5.08742 8.89336C4.8552 8.6612 4.67099 8.38558 4.54531 8.08222C4.41964 7.77886 4.35495 7.45372 4.35495 7.12536C4.35495 6.797 4.41964 6.47186 4.54531 6.1685C4.67099 5.86514 4.8552 5.58951 5.08742 5.35736M8.62342 5.35736C8.85563 5.58951 9.03984 5.86514 9.16552 6.1685C9.2912 6.47186 9.35588 6.797 9.35588 7.12536C9.35588 7.45372 9.2912 7.77886 9.16552 8.08222C9.03984 8.38558 8.85563 8.6612 8.62342 8.89336M7.35542 7.12536C7.35542 7.25797 7.30274 7.38514 7.20897 7.47891C7.1152 7.57268 6.98802 7.62536 6.85542 7.62536C6.72281 7.62536 6.59563 7.57268 6.50186 7.47891C6.40809 7.38514 6.35542 7.25797 6.35542 7.12536C6.35542 6.99275 6.40809 6.86557 6.50186 6.77181C6.59563 6.67804 6.72281 6.62536 6.85542 6.62536C6.98802 6.62536 7.1152 6.67804 7.20897 6.77181C7.30274 6.86557 7.35542 6.99275 7.35542 7.12536Z" stroke="#A0A0A0" stroke-linecap="round" stroke-linejoin="round"/>
</svg>
