<svg width="13" height="13" viewBox="0 0 13 13" fill="none" xmlns="http://www.w3.org/2000/svg">
<path d="M12.5315 11.102C12.5315 11.2244 12.4829 11.3418 12.3963 11.4283C12.3098 11.5149 12.1924 11.5635 12.07 11.5635H0.993033C0.870625 11.5635 0.753231 11.5149 0.666676 11.4283C0.58012 11.3418 0.531494 11.2244 0.531494 11.102V1.87121C0.531494 1.7488 0.58012 1.6314 0.666676 1.54485C0.753231 1.45829 0.870625 1.40967 0.993033 1.40967C1.11544 1.40967 1.23283 1.45829 1.31939 1.54485C1.40594 1.6314 1.45457 1.7488 1.45457 1.87121V8.14236L4.35649 5.23467C4.444 5.148 4.56218 5.09938 4.68534 5.09938C4.8085 5.09938 4.92668 5.148 5.01419 5.23467L6.53149 6.75775L9.34111 3.94813L8.51034 3.12313C8.44773 3.0564 8.40529 2.9733 8.38793 2.88346C8.37058 2.79361 8.37901 2.70069 8.41226 2.61544C8.44819 2.53188 8.50773 2.46063 8.58356 2.41041C8.6594 2.3602 8.74823 2.33321 8.83919 2.33274H11.1469C11.2693 2.33274 11.3867 2.38137 11.4732 2.46793C11.5598 2.55448 11.6084 2.67188 11.6084 2.79428V5.10198C11.6087 5.1931 11.582 5.28226 11.5317 5.35823C11.4814 5.43421 11.4097 5.49359 11.3257 5.5289C11.2688 5.55151 11.2081 5.56325 11.1469 5.56351C11.0243 5.563 10.9066 5.51551 10.818 5.43082L9.99303 4.60005L6.86034 7.73851C6.77284 7.82518 6.65465 7.8738 6.53149 7.8738C6.40833 7.8738 6.29015 7.82518 6.20265 7.73851L4.68534 6.21544L1.45457 9.44621V10.6404H12.07C12.1924 10.6404 12.3098 10.6891 12.3963 10.7756C12.4829 10.8622 12.5315 10.9796 12.5315 11.102Z" fill="#A0A0A0"/>
</svg>
