<svg width="13" height="13" viewBox="0 0 13 13" fill="none" xmlns="http://www.w3.org/2000/svg">
<path d="M6.46749 2.43827L10.058 4.33627C10.591 4.61777 10.591 5.38127 10.058 5.66227L9.42099 5.99927L10.058 6.33627C10.591 6.61777 10.591 7.38127 10.058 7.66227L9.42099 7.99927L10.058 8.33627C10.591 8.61777 10.591 9.38127 10.058 9.66227L6.46749 11.5603C6.32343 11.6365 6.16294 11.6763 5.99999 11.6763C5.83703 11.6763 5.67654 11.6365 5.53249 11.5603L1.94199 9.66227C1.40899 9.38077 1.40899 8.61777 1.94199 8.33627L2.57949 7.99927L1.94199 7.66227C1.40899 7.38077 1.40899 6.61777 1.94199 6.33627L2.57949 5.99927L1.94199 5.66227C1.40899 5.38077 1.40899 4.61777 1.94199 4.33627L5.53249 2.43827C5.67654 2.36209 5.83703 2.32227 5.99999 2.32227C6.16294 2.32227 6.32343 2.36209 6.46749 2.43827ZM8.35099 8.56477L6.46749 9.56027C6.32343 9.63646 6.16294 9.67628 5.99999 9.67628C5.83703 9.67628 5.67654 9.63646 5.53249 9.56027L3.64899 8.56527L2.82749 8.99927L5.99999 10.6763L9.17299 8.99927L8.35099 8.56477ZM8.35099 6.56477L6.46749 7.56077C6.33686 7.62975 6.19257 7.66894 6.045 7.67551C5.89742 7.68208 5.75023 7.65587 5.61399 7.59877L5.53249 7.56077L3.64899 6.56477L2.82749 6.99977L5.99999 8.67577L9.17299 6.99927L8.35099 6.56477ZM5.99999 3.32227L2.82749 4.99927L5.99999 6.67627L9.17299 4.99927L5.99999 3.32227Z" fill="#A0A0A0"/>
</svg>
