<svg width="15" height="10" viewBox="0 0 15 10" fill="none" xmlns="http://www.w3.org/2000/svg">
<path d="M7.12456 0.0615234C11.2801 0.0615234 13.3927 3.12573 14.0201 4.23242C14.1596 4.47854 14.1595 4.77145 14.0201 5.01758C13.3928 6.12415 11.2803 9.18945 7.12456 9.18945C2.96888 9.18944 0.856278 6.12414 0.229051 5.01758C0.0896144 4.77145 0.0895533 4.47853 0.229051 4.23242C0.85636 3.12576 2.96902 0.0615414 7.12456 0.0615234ZM7.12554 2.08984C5.72535 2.09004 4.59038 3.22574 4.59038 4.62598C4.59061 6.02601 5.72549 7.16093 7.12554 7.16113C8.52575 7.16113 9.66144 6.02614 9.66167 4.62598C9.66167 3.22562 8.52589 2.08984 7.12554 2.08984Z" fill="#A0A0A0"/>
</svg>
