<svg width="11" height="10" viewBox="0 0 11 10" fill="none" xmlns="http://www.w3.org/2000/svg">
<path d="M9.88481 0H1.55147C1.33046 0 1.1185 0.0877973 0.962217 0.244078C0.805937 0.400358 0.71814 0.61232 0.71814 0.833333V9.16667C0.71814 9.38768 0.805937 9.59964 0.962217 9.75592C1.1185 9.9122 1.33046 10 1.55147 10H9.88481C10.1058 10 10.3178 9.9122 10.4741 9.75592C10.6303 9.59964 10.7181 9.38768 10.7181 9.16667V0.833333C10.7181 0.61232 10.6303 0.400358 10.4741 0.244078C10.3178 0.0877973 10.1058 0 9.88481 0ZM8.29626 4.05208L5.24418 6.96875C5.16528 7.04297 5.06084 7.084 4.95251 7.08333C4.84578 7.08374 4.74307 7.04265 4.66606 6.96875L3.14001 5.51042C3.09769 5.47349 3.06326 5.42838 3.03881 5.37781C3.01436 5.32724 3.00039 5.27225 2.99774 5.21614C2.99508 5.16003 3.0038 5.10396 3.02337 5.05131C3.04293 4.99866 3.07294 4.9505 3.1116 4.90974C3.15025 4.86898 3.19674 4.83646 3.24828 4.81413C3.29982 4.79179 3.35535 4.78011 3.41152 4.77979C3.46769 4.77946 3.52335 4.7905 3.57514 4.81223C3.62694 4.83396 3.67381 4.86594 3.71293 4.90625L4.95251 6.08854L7.72335 3.44792C7.80436 3.37723 7.90957 3.3406 8.01696 3.34569C8.12436 3.35077 8.22563 3.39716 8.29961 3.47518C8.3736 3.5532 8.41456 3.65679 8.41393 3.76431C8.41331 3.87182 8.37115 3.97493 8.29626 4.05208Z" fill="#0A2540"/>
</svg>
