<svg width="24" height="25" viewBox="0 0 24 25" fill="none" xmlns="http://www.w3.org/2000/svg">
<g clip-path="url(#clip0_453_4859)">
<path d="M8.35909 1.28992C5.96112 2.1218 3.89311 3.70073 2.45882 5.7948C1.02454 7.88887 0.299573 10.3877 0.390418 12.9242C0.481264 15.4608 1.38313 17.9013 2.96355 19.8874C4.54396 21.8735 6.71962 23.3005 9.17096 23.9587C11.1583 24.4715 13.2405 24.494 15.2385 24.0243C17.0484 23.6177 18.7218 22.7481 20.0947 21.5005C21.5236 20.1624 22.5608 18.4602 23.0947 16.5768C23.6751 14.5287 23.7783 12.3748 23.3966 10.2805H12.2366V14.9099H18.6997C18.5705 15.6483 18.2937 16.353 17.8859 16.9819C17.478 17.6107 16.9474 18.1509 16.326 18.5699C15.5367 19.092 14.6471 19.4432 13.7141 19.6012C12.7784 19.7752 11.8186 19.7752 10.8828 19.6012C9.93444 19.4051 9.03727 19.0137 8.24846 18.4518C6.98124 17.5548 6.02973 16.2804 5.52971 14.8105C5.02124 13.3132 5.02124 11.6898 5.52971 10.1924C5.88564 9.14283 6.47403 8.18717 7.25096 7.3968C8.14007 6.4757 9.26571 5.81729 10.5044 5.49381C11.743 5.17034 13.0469 5.19429 14.2728 5.56305C15.2305 5.85703 16.1063 6.37068 16.8303 7.06305C17.5591 6.33805 18.2866 5.61117 19.0128 4.88242C19.3878 4.49055 19.7966 4.11742 20.166 3.71617C19.0608 2.68769 17.7635 1.8874 16.3485 1.36117C13.7717 0.425527 10.9522 0.400382 8.35909 1.28992Z" fill="white"/>
<path d="M8.35875 1.28888C10.9516 0.398736 13.7711 0.423218 16.3481 1.35825C17.7634 1.88806 19.0601 2.6922 20.1637 3.7245C19.7887 4.12575 19.3931 4.50075 19.0106 4.89075C18.2831 5.617 17.5562 6.34075 16.83 7.062C16.106 6.36964 15.2302 5.85599 14.2725 5.562C13.047 5.19196 11.7432 5.16662 10.5042 5.48877C9.26516 5.81092 8.13883 6.46812 7.24875 7.38825C6.47181 8.17863 5.88342 9.13428 5.5275 10.1839L1.64062 7.1745C3.03189 4.41556 5.44078 2.30517 8.35875 1.28888Z" fill="#E33629"/>
<path d="M0.611401 10.157C0.820316 9.12164 1.16716 8.11896 1.64265 7.17578L5.52953 10.1927C5.02105 11.69 5.02105 13.3134 5.52953 14.8108C4.23453 15.8108 2.9389 16.8158 1.64265 17.8258C0.452308 15.4564 0.0892746 12.7567 0.611401 10.157Z" fill="#F8BD00"/>
<path d="M12.2391 10.2773H23.3991C23.7809 12.3716 23.6776 14.5255 23.0972 16.5736C22.5633 18.457 21.5261 20.1592 20.0972 21.4973C18.8429 20.5186 17.5829 19.5473 16.3285 18.5686C16.9504 18.1491 17.4812 17.6084 17.8891 16.9788C18.297 16.3493 18.5735 15.6439 18.7022 14.9048H12.2391C12.2372 13.3636 12.2391 11.8205 12.2391 10.2773Z" fill="#587DBD"/>
<path d="M1.64062 17.8255C2.93687 16.8255 4.2325 15.8205 5.5275 14.8105C6.02851 16.2809 6.98138 17.5553 8.25 18.4518C9.04127 19.011 9.94037 19.3993 10.89 19.5918C11.8257 19.7658 12.7855 19.7658 13.7213 19.5918C14.6542 19.4339 15.5439 19.0826 16.3331 18.5605C17.5875 19.5393 18.8475 20.5105 20.1019 21.4893C18.7292 22.7375 17.0558 23.6078 15.2456 24.0149C13.2476 24.4846 11.1655 24.4621 9.17813 23.9493C7.60632 23.5296 6.13814 22.7898 4.86563 21.7762C3.51874 20.7068 2.41867 19.3592 1.64062 17.8255Z" fill="#319F43"/>
</g>
<defs>
<clipPath id="clip0_453_4859">
<rect width="24" height="24" fill="white" transform="translate(0 0.5)"/>
</clipPath>
</defs>
</svg>
