<svg width="294" height="75" viewBox="0 0 294 75" fill="none" xmlns="http://www.w3.org/2000/svg">
<path d="M0.531494 73.9727L293.784 73.9726" stroke="#E5E5E5" stroke-width="0.6"/>
<path d="M0.531494 49.3145L293.784 49.3144" stroke="#E5E5E5" stroke-width="0.6"/>
<path d="M0.531494 24.6562L293.784 24.6562" stroke="#E5E5E5" stroke-width="0.6"/>
<path d="M108.402 74.0039L108.402 0.000470912" stroke="#E5E5E5" stroke-width="0.6" stroke-dasharray="5 5"/>
<path d="M20.6979 74.0039L20.6979 0.000470912" stroke="#E5E5E5" stroke-width="0.6" stroke-dasharray="5 5"/>
<path d="M194.698 74.0039L194.698 0.000470912" stroke="#E5E5E5" stroke-width="0.6" stroke-dasharray="5 5"/>
<path d="M281.163 74.0039L281.163 0.00047493" stroke="#E5E5E5" stroke-width="0.6" stroke-dasharray="5 5"/>
<rect x="19.057" y="24.502" width="3.90853" height="49.4794" rx="1.95426" fill="#FF7F3E"/>
<rect x="29.5323" y="33.3008" width="3.90853" height="40.6831" rx="1.95426" fill="#0A2540"/>
<rect x="40.0082" y="24.502" width="3.90853" height="49.4794" rx="1.95426" fill="#FF7F3E"/>
<rect x="50.48" y="42.9199" width="3.90853" height="31.0621" rx="1.95426" fill="#0A2540"/>
<rect x="60.9558" y="29.1758" width="3.90853" height="44.8064" rx="1.95426" fill="#FF7F3E"/>
<rect width="3.90842" height="14.3884" rx="1.95421" transform="matrix(0.999931 -0.0117174 0.0164498 0.999865 71.4316 59.6172)" fill="#0A2540"/>
<rect x="82.1412" y="33.3008" width="3.90853" height="40.6831" rx="1.95426" fill="#FF7F3E"/>
<rect x="92.6171" y="15.7051" width="3.90853" height="58.2758" rx="1.95426" fill="#0A2540"/>
<rect x="103.089" y="24.502" width="3.90853" height="49.4794" rx="1.95426" fill="#FF7F3E"/>
<rect x="113.564" y="38.5215" width="3.90853" height="35.4603" rx="1.95426" fill="#0A2540"/>
<rect x="124.04" y="15.7051" width="3.90853" height="58.2758" rx="1.95426" fill="#FF7F3E"/>
<rect x="134.516" y="31.373" width="3.90853" height="42.6073" rx="1.95426" fill="#0A2540"/>
<rect x="144.992" y="23.127" width="3.90853" height="50.8539" rx="1.95426" fill="#FF7F3E"/>
<rect x="155.464" y="48.9668" width="3.90853" height="25.0146" rx="1.95426" fill="#0A2540"/>
<rect x="165.939" y="31.7188" width="3.90853" height="42.2637" rx="1.95426" fill="#FF7F3E"/>
<rect x="176.414" y="41.6133" width="3.90853" height="32.3678" rx="1.95426" fill="#0A2540"/>
<rect x="186.887" y="22.7832" width="3.90853" height="51.1975" rx="1.95426" fill="#FF7F3E"/>
<rect x="197.362" y="31.7188" width="3.90853" height="42.2637" rx="1.95426" fill="#0A2540"/>
<rect x="207.838" y="43.5371" width="3.90853" height="30.4436" rx="1.95426" fill="#FF7F3E"/>
<rect x="218.313" y="18.5898" width="3.90853" height="55.3895" rx="1.95426" fill="#0A2540"/>
<rect x="228.789" y="34.1914" width="3.90853" height="39.7897" rx="1.95426" fill="#FF7F3E"/>
<rect x="239.261" y="28.2129" width="3.90853" height="45.7685" rx="1.95426" fill="#0A2540"/>
<rect x="249.737" y="46.7676" width="3.90853" height="27.2137" rx="1.95426" fill="#FF7F3E"/>
<rect x="260.212" y="22.4395" width="3.90853" height="51.5411" rx="1.95426" fill="#0A2540"/>
<rect x="270.685" y="30.5508" width="3.90853" height="43.432" rx="1.95426" fill="#FF7F3E"/>
<rect x="281.159" y="18.9355" width="3.90853" height="55.0459" rx="1.95426" fill="#0A2540"/>
</svg>
