<svg width="36" height="37" viewBox="0 0 36 37" fill="none" xmlns="http://www.w3.org/2000/svg">
<path fill-rule="evenodd" clip-rule="evenodd" d="M16.5 3.5C19.3995 3.5 21.7501 5.85048 21.7501 8.74995C21.7501 11.5528 19.5536 13.8427 16.7881 13.9922L16.5 14C13.6006 14 11.25 11.6495 11.25 8.74995C11.25 5.94716 13.4464 3.65722 16.212 3.50773L16.5 3.5ZM6 30.5H19.2041C18.6674 29.5727 18.3017 28.5566 18.1245 27.5H9.00002V25.1L9.00783 24.8088C9.15246 22.1112 11.294 20 13.875 20H19.125L19.3998 20.008C19.6676 20.0236 19.93 20.062 20.1851 20.1213C20.9435 19.2425 21.8642 18.5181 22.8967 17.9877C21.7766 17.358 20.4915 17 19.125 17H13.875L13.5504 17.0068C9.35173 17.1818 6 20.7383 6 25.1V30.5ZM14.25 8.74995C14.25 7.50732 15.2574 6.49995 16.5 6.49995C17.7427 6.49995 18.75 7.50732 18.75 8.74995C18.75 9.99259 17.7427 11 16.5 11C15.2574 11 14.25 9.99259 14.25 8.74995ZM22.5916 32.0676L27 29.375L31.4084 32.0676L30.2099 27.0429L34.1329 23.6824L28.9838 23.2696L27 18.5L25.0162 23.2696L19.8671 23.6824L23.7902 27.0429L22.5916 32.0676Z" fill="#0A2540"/>
</svg>
