<svg width="361" height="220" viewBox="0 0 361 220" fill="none" xmlns="http://www.w3.org/2000/svg">
<mask id="mask0_555_3196" style="mask-type:alpha" maskUnits="userSpaceOnUse" x="0" y="0" width="361" height="220">
<rect x="0.5" width="360" height="220" rx="21" fill="#D9D9D9"/>
</mask>
<g mask="url(#mask0_555_3196)">
<g filter="url(#filter0_f_555_3196)">
<rect x="378.5" y="230" width="387" height="241" rx="21" transform="rotate(180 378.5 230)" fill="url(#paint0_linear_555_3196)"/>
</g>
</g>
<path d="M46.924 63.192C45.5053 63.192 44.4013 62.712 43.612 61.752C42.8227 60.7813 42.428 59.3573 42.428 57.48C42.428 55.6027 42.8227 54.1627 43.612 53.16C44.4013 52.1467 45.5053 51.64 46.924 51.64C47.8627 51.64 48.6467 51.8533 49.276 52.28C49.916 52.7067 50.412 53.3093 50.764 54.088L49.676 54.744C49.452 54.168 49.1107 53.7093 48.652 53.368C48.1933 53.016 47.6173 52.84 46.924 52.84C46.444 52.84 46.012 52.9307 45.628 53.112C45.2547 53.2933 44.9347 53.5547 44.668 53.896C44.412 54.2267 44.2147 54.6267 44.076 55.096C43.9373 55.5547 43.868 56.072 43.868 56.648V58.312C43.868 59.464 44.1347 60.3653 44.668 61.016C45.2013 61.6667 45.9533 61.992 46.924 61.992C47.6387 61.992 48.236 61.8107 48.716 61.448C49.196 61.0747 49.548 60.584 49.772 59.976L50.844 60.648C50.492 61.4373 49.9853 62.0613 49.324 62.52C48.6627 62.968 47.8627 63.192 46.924 63.192ZM52.7975 63V54.744H54.0775V56.264H54.1575C54.3068 55.8693 54.5735 55.5173 54.9575 55.208C55.3415 54.8987 55.8695 54.744 56.5415 54.744H57.0375V56.024H56.2855C55.5922 56.024 55.0482 56.1573 54.6535 56.424C54.2695 56.68 54.0775 57.0053 54.0775 57.4V63H52.7975ZM61.6984 63.192C61.133 63.192 60.621 63.0907 60.1624 62.888C59.7144 62.6853 59.325 62.3973 58.9944 62.024C58.6744 61.64 58.4237 61.1867 58.2424 60.664C58.0717 60.1307 57.9864 59.5333 57.9864 58.872C57.9864 58.2213 58.0717 57.6293 58.2424 57.096C58.4237 56.5627 58.6744 56.1093 58.9944 55.736C59.325 55.352 59.7144 55.0587 60.1624 54.856C60.621 54.6533 61.133 54.552 61.6984 54.552C62.253 54.552 62.749 54.6533 63.1864 54.856C63.6237 55.0587 63.997 55.3413 64.3064 55.704C64.6157 56.056 64.8504 56.4773 65.0104 56.968C65.181 57.4587 65.2664 57.9973 65.2664 58.584V59.192H59.3304V59.576C59.3304 59.928 59.3837 60.2587 59.4904 60.568C59.6077 60.8667 59.7677 61.128 59.9704 61.352C60.1837 61.576 60.4397 61.752 60.7384 61.88C61.0477 62.008 61.3944 62.072 61.7784 62.072C62.301 62.072 62.7544 61.9493 63.1384 61.704C63.533 61.4587 63.837 61.1067 64.0504 60.648L64.9624 61.304C64.6957 61.8693 64.2797 62.328 63.7144 62.68C63.149 63.0213 62.477 63.192 61.6984 63.192ZM61.6984 55.624C61.3464 55.624 61.0264 55.688 60.7384 55.816C60.4504 55.9333 60.1997 56.104 59.9864 56.328C59.7837 56.552 59.6237 56.8187 59.5064 57.128C59.389 57.4267 59.3304 57.7573 59.3304 58.12V58.232H63.8904V58.056C63.8904 57.32 63.6877 56.7333 63.2824 56.296C62.8877 55.848 62.3597 55.624 61.6984 55.624ZM72.6556 61.656H72.5916C72.0903 62.68 71.285 63.192 70.1756 63.192C69.6636 63.192 69.1996 63.0907 68.7836 62.888C68.3676 62.6853 68.0103 62.3973 67.7116 62.024C67.4236 61.6507 67.1996 61.1973 67.0396 60.664C66.8903 60.1307 66.8156 59.5333 66.8156 58.872C66.8156 58.2107 66.8903 57.6133 67.0396 57.08C67.1996 56.5467 67.4236 56.0933 67.7116 55.72C68.0103 55.3467 68.3676 55.0587 68.7836 54.856C69.1996 54.6533 69.6636 54.552 70.1756 54.552C70.7516 54.552 71.2423 54.68 71.6476 54.936C72.0636 55.1813 72.3783 55.5653 72.5916 56.088H72.6556V51.16H73.9356V63H72.6556V61.656ZM70.5276 62.04C70.8156 62.04 71.0876 62.0027 71.3436 61.928C71.6103 61.8533 71.8396 61.7467 72.0316 61.608C72.2236 61.4587 72.373 61.2827 72.4796 61.08C72.597 60.8667 72.6556 60.6267 72.6556 60.36V57.288C72.6556 57.064 72.597 56.856 72.4796 56.664C72.373 56.4613 72.2236 56.2907 72.0316 56.152C71.8396 56.0133 71.6103 55.9067 71.3436 55.832C71.0876 55.7467 70.8156 55.704 70.5276 55.704C69.8023 55.704 69.2316 55.9333 68.8156 56.392C68.3996 56.84 68.1916 57.432 68.1916 58.168V59.576C68.1916 60.312 68.3996 60.9093 68.8156 61.368C69.2316 61.816 69.8023 62.04 70.5276 62.04ZM77.2969 52.808C77.0195 52.808 76.8169 52.744 76.6889 52.616C76.5715 52.4773 76.5129 52.3013 76.5129 52.088V51.88C76.5129 51.6667 76.5715 51.496 76.6889 51.368C76.8169 51.2293 77.0195 51.16 77.2969 51.16C77.5742 51.16 77.7715 51.2293 77.8889 51.368C78.0169 51.496 78.0809 51.6667 78.0809 51.88V52.088C78.0809 52.3013 78.0169 52.4773 77.8889 52.616C77.7715 52.744 77.5742 52.808 77.2969 52.808ZM76.6569 54.744H77.9369V63H76.6569V54.744ZM82.4809 63C82.0329 63 81.6915 62.8773 81.4569 62.632C81.2329 62.376 81.1209 62.0453 81.1209 61.64V55.864H79.7609V54.744H80.5289C80.8062 54.744 80.9929 54.6907 81.0889 54.584C81.1955 54.4667 81.2489 54.2693 81.2489 53.992V52.456H82.4009V54.744H84.2089V55.864H82.4009V61.88H84.0809V63H82.4809Z" fill="white"/>
<circle cx="304.178" cy="54.6976" r="19.6976" fill="white" fill-opacity="0.29"/>
<circle cx="280.198" cy="54.6976" r="19.6976" fill="white" fill-opacity="0.68"/>
<path d="M48.25 143V140.534H42.184V139.202L47.44 130.436H49.69V139.274H51.508V140.534H49.69V143H48.25ZM43.606 139.274H48.25V131.606H48.16L43.606 139.274ZM58.593 143.216C57.873 143.216 57.243 143.126 56.703 142.946C56.163 142.754 55.707 142.496 55.335 142.172C54.975 141.848 54.699 141.464 54.507 141.02C54.327 140.576 54.237 140.096 54.237 139.58C54.237 138.716 54.471 138.032 54.939 137.528C55.407 137.024 56.019 136.67 56.775 136.466V136.322C56.115 136.094 55.587 135.728 55.191 135.224C54.807 134.708 54.615 134.09 54.615 133.37C54.615 132.41 54.963 131.648 55.659 131.084C56.355 130.508 57.333 130.22 58.593 130.22C59.853 130.22 60.831 130.508 61.527 131.084C62.223 131.648 62.571 132.41 62.571 133.37C62.571 134.09 62.373 134.708 61.977 135.224C61.593 135.728 61.071 136.094 60.411 136.322V136.466C61.167 136.67 61.779 137.024 62.247 137.528C62.715 138.032 62.949 138.716 62.949 139.58C62.949 140.096 62.853 140.576 62.661 141.02C62.481 141.464 62.205 141.848 61.833 142.172C61.473 142.496 61.023 142.754 60.483 142.946C59.943 143.126 59.313 143.216 58.593 143.216ZM58.593 141.902C59.469 141.902 60.147 141.71 60.627 141.326C61.107 140.93 61.347 140.372 61.347 139.652V139.274C61.347 138.554 61.107 138.002 60.627 137.618C60.147 137.222 59.469 137.024 58.593 137.024C57.717 137.024 57.039 137.222 56.559 137.618C56.079 138.002 55.839 138.554 55.839 139.274V139.652C55.839 140.372 56.079 140.93 56.559 141.326C57.039 141.71 57.717 141.902 58.593 141.902ZM58.593 135.764C59.385 135.764 59.985 135.596 60.393 135.26C60.801 134.924 61.005 134.432 61.005 133.784V133.514C61.005 132.866 60.801 132.374 60.393 132.038C59.985 131.702 59.385 131.534 58.593 131.534C57.801 131.534 57.201 131.702 56.793 132.038C56.385 132.374 56.181 132.866 56.181 133.514V133.784C56.181 134.432 56.385 134.924 56.793 135.26C57.201 135.596 57.801 135.764 58.593 135.764ZM70.2859 143.216C68.7859 143.216 67.6879 142.646 66.9919 141.506C66.3079 140.366 65.9659 138.77 65.9659 136.718C65.9659 134.666 66.3079 133.07 66.9919 131.93C67.6879 130.79 68.7859 130.22 70.2859 130.22C71.7859 130.22 72.8779 130.79 73.5619 131.93C74.2579 133.07 74.6059 134.666 74.6059 136.718C74.6059 138.77 74.2579 140.366 73.5619 141.506C72.8779 142.646 71.7859 143.216 70.2859 143.216ZM70.2859 141.902C70.7779 141.902 71.1979 141.8 71.5459 141.596C71.8939 141.392 72.1759 141.104 72.3919 140.732C72.6079 140.36 72.7639 139.922 72.8599 139.418C72.9679 138.914 73.0219 138.356 73.0219 137.744V135.692C73.0219 135.08 72.9679 134.522 72.8599 134.018C72.7639 133.514 72.6079 133.076 72.3919 132.704C72.1759 132.332 71.8939 132.044 71.5459 131.84C71.1979 131.636 70.7779 131.534 70.2859 131.534C69.7939 131.534 69.3739 131.636 69.0259 131.84C68.6779 132.044 68.3959 132.332 68.1799 132.704C67.9639 133.076 67.8019 133.514 67.6939 134.018C67.5979 134.522 67.5499 135.08 67.5499 135.692V137.744C67.5499 138.356 67.5979 138.914 67.6939 139.418C67.8019 139.922 67.9639 140.36 68.1799 140.732C68.3959 141.104 68.6779 141.392 69.0259 141.596C69.3739 141.8 69.7939 141.902 70.2859 141.902ZM86.1729 143H77.9289V141.452L82.0329 137.672C82.6209 137.132 83.1129 136.562 83.5089 135.962C83.9049 135.35 84.1029 134.738 84.1029 134.126V133.91C84.1029 133.214 83.9109 132.65 83.5269 132.218C83.1429 131.786 82.5609 131.57 81.7809 131.57C81.3969 131.57 81.0609 131.624 80.7729 131.732C80.4849 131.84 80.2329 131.99 80.0169 132.182C79.8129 132.374 79.6389 132.602 79.4949 132.866C79.3629 133.118 79.2549 133.394 79.1709 133.694L77.8209 133.172C77.9409 132.8 78.1029 132.44 78.3069 132.092C78.5229 131.732 78.7869 131.414 79.0989 131.138C79.4229 130.862 79.8069 130.64 80.2509 130.472C80.7069 130.304 81.2409 130.22 81.8529 130.22C82.4649 130.22 83.0109 130.31 83.4909 130.49C83.9709 130.67 84.3729 130.922 84.6969 131.246C85.0209 131.57 85.2669 131.954 85.4349 132.398C85.6149 132.842 85.7049 133.334 85.7049 133.874C85.7049 134.366 85.6329 134.822 85.4889 135.242C85.3569 135.662 85.1709 136.064 84.9309 136.448C84.6909 136.82 84.3969 137.186 84.0489 137.546C83.7129 137.906 83.3469 138.266 82.9509 138.626L79.5669 141.668H86.1729V143ZM113.328 143H105.084V141.452L109.188 137.672C109.776 137.132 110.268 136.562 110.664 135.962C111.06 135.35 111.258 134.738 111.258 134.126V133.91C111.258 133.214 111.066 132.65 110.682 132.218C110.298 131.786 109.716 131.57 108.936 131.57C108.552 131.57 108.216 131.624 107.928 131.732C107.64 131.84 107.388 131.99 107.172 132.182C106.968 132.374 106.794 132.602 106.65 132.866C106.518 133.118 106.41 133.394 106.326 133.694L104.976 133.172C105.096 132.8 105.258 132.44 105.462 132.092C105.678 131.732 105.942 131.414 106.254 131.138C106.578 130.862 106.962 130.64 107.406 130.472C107.862 130.304 108.396 130.22 109.008 130.22C109.62 130.22 110.166 130.31 110.646 130.49C111.126 130.67 111.528 130.922 111.852 131.246C112.176 131.57 112.422 131.954 112.59 132.398C112.77 132.842 112.86 133.334 112.86 133.874C112.86 134.366 112.788 134.822 112.644 135.242C112.512 135.662 112.326 136.064 112.086 136.448C111.846 136.82 111.552 137.186 111.204 137.546C110.868 137.906 110.502 138.266 110.106 138.626L106.722 141.668H113.328V143ZM125.021 143H116.777V141.452L120.881 137.672C121.469 137.132 121.961 136.562 122.357 135.962C122.753 135.35 122.951 134.738 122.951 134.126V133.91C122.951 133.214 122.759 132.65 122.375 132.218C121.991 131.786 121.409 131.57 120.629 131.57C120.245 131.57 119.909 131.624 119.621 131.732C119.333 131.84 119.081 131.99 118.865 132.182C118.661 132.374 118.487 132.602 118.343 132.866C118.211 133.118 118.103 133.394 118.019 133.694L116.669 133.172C116.789 132.8 116.951 132.44 117.155 132.092C117.371 131.732 117.635 131.414 117.947 131.138C118.271 130.862 118.655 130.64 119.099 130.472C119.555 130.304 120.089 130.22 120.701 130.22C121.313 130.22 121.859 130.31 122.339 130.49C122.819 130.67 123.221 130.922 123.545 131.246C123.869 131.57 124.115 131.954 124.283 132.398C124.463 132.842 124.553 133.334 124.553 133.874C124.553 134.366 124.481 134.822 124.337 135.242C124.205 135.662 124.019 136.064 123.779 136.448C123.539 136.82 123.245 137.186 122.897 137.546C122.561 137.906 122.195 138.266 121.799 138.626L118.415 141.668H125.021V143ZM128.704 143V141.668H132.214V131.552H132.088L128.92 134.504L128.038 133.55L131.368 130.436H133.726V141.668H136.966V143H128.704ZM147.777 131.768H142.269L141.909 136.556H142.035C142.335 136.136 142.671 135.8 143.043 135.548C143.427 135.296 143.949 135.17 144.609 135.17C145.149 135.17 145.647 135.26 146.103 135.44C146.559 135.62 146.955 135.878 147.291 136.214C147.627 136.538 147.885 136.94 148.064 137.42C148.257 137.9 148.353 138.446 148.353 139.058C148.353 139.67 148.257 140.234 148.064 140.75C147.873 141.254 147.591 141.692 147.219 142.064C146.859 142.424 146.415 142.706 145.887 142.91C145.371 143.114 144.783 143.216 144.123 143.216C143.595 143.216 143.127 143.156 142.719 143.036C142.323 142.916 141.969 142.754 141.657 142.55C141.345 142.346 141.069 142.118 140.829 141.866C140.601 141.614 140.391 141.35 140.199 141.074L141.333 140.21C141.489 140.462 141.651 140.69 141.819 140.894C141.999 141.098 142.191 141.272 142.395 141.416C142.611 141.56 142.857 141.674 143.133 141.758C143.409 141.83 143.739 141.866 144.123 141.866C144.987 141.866 145.641 141.638 146.085 141.182C146.529 140.726 146.751 140.084 146.751 139.256V139.076C146.751 138.248 146.529 137.606 146.085 137.15C145.641 136.694 144.987 136.466 144.123 136.466C143.547 136.466 143.091 136.574 142.755 136.79C142.431 136.994 142.137 137.24 141.873 137.528L140.595 137.348L141.045 130.436H147.777V131.768ZM167.551 143V141.668H171.061V131.552H170.935L167.767 134.504L166.885 133.55L170.215 130.436H172.573V141.668H175.813V143H167.551ZM179.244 143V141.668H182.754V131.552H182.628L179.46 134.504L178.578 133.55L181.908 130.436H184.266V141.668H187.506V143H179.244ZM194.753 143.216C194.033 143.216 193.403 143.126 192.863 142.946C192.323 142.754 191.867 142.496 191.495 142.172C191.135 141.848 190.859 141.464 190.667 141.02C190.487 140.576 190.397 140.096 190.397 139.58C190.397 138.716 190.631 138.032 191.099 137.528C191.567 137.024 192.179 136.67 192.935 136.466V136.322C192.275 136.094 191.747 135.728 191.351 135.224C190.967 134.708 190.775 134.09 190.775 133.37C190.775 132.41 191.123 131.648 191.819 131.084C192.515 130.508 193.493 130.22 194.753 130.22C196.013 130.22 196.991 130.508 197.687 131.084C198.383 131.648 198.731 132.41 198.731 133.37C198.731 134.09 198.533 134.708 198.137 135.224C197.753 135.728 197.231 136.094 196.571 136.322V136.466C197.327 136.67 197.939 137.024 198.407 137.528C198.875 138.032 199.109 138.716 199.109 139.58C199.109 140.096 199.013 140.576 198.821 141.02C198.641 141.464 198.365 141.848 197.993 142.172C197.633 142.496 197.183 142.754 196.643 142.946C196.103 143.126 195.473 143.216 194.753 143.216ZM194.753 141.902C195.629 141.902 196.307 141.71 196.787 141.326C197.267 140.93 197.507 140.372 197.507 139.652V139.274C197.507 138.554 197.267 138.002 196.787 137.618C196.307 137.222 195.629 137.024 194.753 137.024C193.877 137.024 193.199 137.222 192.719 137.618C192.239 138.002 191.999 138.554 191.999 139.274V139.652C191.999 140.372 192.239 140.93 192.719 141.326C193.199 141.71 193.877 141.902 194.753 141.902ZM194.753 135.764C195.545 135.764 196.145 135.596 196.553 135.26C196.961 134.924 197.165 134.432 197.165 133.784V133.514C197.165 132.866 196.961 132.374 196.553 132.038C196.145 131.702 195.545 131.534 194.753 131.534C193.961 131.534 193.361 131.702 192.953 132.038C192.545 132.374 192.341 132.866 192.341 133.514V133.784C192.341 134.432 192.545 134.924 192.953 135.26C193.361 135.596 193.961 135.764 194.753 135.764ZM205.744 135.764C206.596 135.764 207.232 135.572 207.652 135.188C208.084 134.792 208.3 134.288 208.3 133.676V133.55C208.3 132.89 208.09 132.398 207.67 132.074C207.262 131.738 206.722 131.57 206.05 131.57C205.402 131.57 204.874 131.714 204.466 132.002C204.058 132.278 203.722 132.656 203.458 133.136L202.342 132.272C202.498 132.02 202.684 131.774 202.9 131.534C203.128 131.282 203.392 131.06 203.692 130.868C203.992 130.676 204.34 130.52 204.736 130.4C205.132 130.28 205.582 130.22 206.086 130.22C206.614 130.22 207.112 130.292 207.58 130.436C208.048 130.568 208.45 130.772 208.786 131.048C209.134 131.312 209.404 131.642 209.596 132.038C209.8 132.434 209.902 132.884 209.902 133.388C209.902 133.796 209.836 134.162 209.704 134.486C209.584 134.81 209.416 135.092 209.2 135.332C208.984 135.572 208.726 135.776 208.426 135.944C208.138 136.112 207.826 136.238 207.49 136.322V136.394C207.826 136.466 208.15 136.586 208.462 136.754C208.786 136.91 209.068 137.12 209.308 137.384C209.56 137.636 209.758 137.948 209.902 138.32C210.058 138.68 210.136 139.094 210.136 139.562C210.136 140.102 210.034 140.6 209.83 141.056C209.626 141.5 209.338 141.884 208.966 142.208C208.594 142.52 208.144 142.766 207.616 142.946C207.088 143.126 206.506 143.216 205.87 143.216C205.33 143.216 204.85 143.156 204.43 143.036C204.01 142.916 203.638 142.754 203.314 142.55C202.99 142.346 202.702 142.118 202.45 141.866C202.21 141.614 201.994 141.35 201.802 141.074L202.936 140.21C203.092 140.462 203.26 140.69 203.44 140.894C203.632 141.098 203.842 141.272 204.07 141.416C204.298 141.56 204.556 141.674 204.844 141.758C205.132 141.83 205.468 141.866 205.852 141.866C206.74 141.866 207.412 141.668 207.868 141.272C208.324 140.864 208.552 140.288 208.552 139.544V139.4C208.552 138.656 208.324 138.086 207.868 137.69C207.412 137.282 206.74 137.078 205.852 137.078H204.376V135.764H205.744ZM234.951 143V140.534H228.885V139.202L234.141 130.436H236.391V139.274H238.209V140.534H236.391V143H234.951ZM230.307 139.274H234.951V131.606H234.861L230.307 139.274ZM249.488 143H241.244V141.452L245.348 137.672C245.936 137.132 246.428 136.562 246.824 135.962C247.22 135.35 247.418 134.738 247.418 134.126V133.91C247.418 133.214 247.226 132.65 246.842 132.218C246.458 131.786 245.876 131.57 245.096 131.57C244.712 131.57 244.376 131.624 244.088 131.732C243.8 131.84 243.548 131.99 243.332 132.182C243.128 132.374 242.954 132.602 242.81 132.866C242.678 133.118 242.57 133.394 242.486 133.694L241.136 133.172C241.256 132.8 241.418 132.44 241.622 132.092C241.838 131.732 242.102 131.414 242.414 131.138C242.738 130.862 243.122 130.64 243.566 130.472C244.022 130.304 244.556 130.22 245.168 130.22C245.78 130.22 246.326 130.31 246.806 130.49C247.286 130.67 247.688 130.922 248.012 131.246C248.336 131.57 248.582 131.954 248.75 132.398C248.93 132.842 249.02 133.334 249.02 133.874C249.02 134.366 248.948 134.822 248.804 135.242C248.672 135.662 248.486 136.064 248.246 136.448C248.006 136.82 247.712 137.186 247.364 137.546C247.028 137.906 246.662 138.266 246.266 138.626L242.882 141.668H249.488V143ZM256.987 143.216C256.267 143.216 255.637 143.126 255.097 142.946C254.557 142.754 254.101 142.496 253.729 142.172C253.369 141.848 253.093 141.464 252.901 141.02C252.721 140.576 252.631 140.096 252.631 139.58C252.631 138.716 252.865 138.032 253.333 137.528C253.801 137.024 254.413 136.67 255.169 136.466V136.322C254.509 136.094 253.981 135.728 253.585 135.224C253.201 134.708 253.009 134.09 253.009 133.37C253.009 132.41 253.357 131.648 254.053 131.084C254.749 130.508 255.727 130.22 256.987 130.22C258.247 130.22 259.225 130.508 259.921 131.084C260.617 131.648 260.965 132.41 260.965 133.37C260.965 134.09 260.767 134.708 260.371 135.224C259.987 135.728 259.465 136.094 258.805 136.322V136.466C259.561 136.67 260.173 137.024 260.641 137.528C261.109 138.032 261.343 138.716 261.343 139.58C261.343 140.096 261.247 140.576 261.055 141.02C260.875 141.464 260.599 141.848 260.227 142.172C259.867 142.496 259.417 142.754 258.877 142.946C258.337 143.126 257.707 143.216 256.987 143.216ZM256.987 141.902C257.863 141.902 258.541 141.71 259.021 141.326C259.501 140.93 259.741 140.372 259.741 139.652V139.274C259.741 138.554 259.501 138.002 259.021 137.618C258.541 137.222 257.863 137.024 256.987 137.024C256.111 137.024 255.433 137.222 254.953 137.618C254.473 138.002 254.233 138.554 254.233 139.274V139.652C254.233 140.372 254.473 140.93 254.953 141.326C255.433 141.71 256.111 141.902 256.987 141.902ZM256.987 135.764C257.779 135.764 258.379 135.596 258.787 135.26C259.195 134.924 259.399 134.432 259.399 133.784V133.514C259.399 132.866 259.195 132.374 258.787 132.038C258.379 131.702 257.779 131.534 256.987 131.534C256.195 131.534 255.595 131.702 255.187 132.038C254.779 132.374 254.575 132.866 254.575 133.514V133.784C254.575 134.432 254.779 134.924 255.187 135.26C255.595 135.596 256.195 135.764 256.987 135.764ZM272.874 135.044C272.874 135.98 272.736 136.862 272.46 137.69C272.184 138.506 271.824 139.256 271.38 139.94C270.948 140.612 270.468 141.212 269.94 141.74C269.412 142.256 268.896 142.676 268.392 143H266.448C267.12 142.508 267.72 142.028 268.248 141.56C268.776 141.092 269.238 140.606 269.634 140.102C270.03 139.586 270.366 139.04 270.642 138.464C270.918 137.876 271.14 137.216 271.308 136.484L271.218 136.448C270.918 136.964 270.528 137.396 270.048 137.744C269.58 138.08 268.962 138.248 268.194 138.248C267.654 138.248 267.156 138.158 266.7 137.978C266.244 137.798 265.854 137.54 265.53 137.204C265.206 136.868 264.948 136.466 264.756 135.998C264.576 135.518 264.486 134.978 264.486 134.378C264.486 133.766 264.582 133.208 264.774 132.704C264.978 132.188 265.26 131.75 265.62 131.39C265.992 131.018 266.43 130.73 266.934 130.526C267.45 130.322 268.026 130.22 268.662 130.22C269.31 130.22 269.892 130.334 270.408 130.562C270.936 130.778 271.38 131.096 271.74 131.516C272.112 131.924 272.394 132.428 272.586 133.028C272.778 133.628 272.874 134.3 272.874 135.044ZM268.68 136.97C269.508 136.97 270.15 136.742 270.606 136.286C271.074 135.83 271.308 135.176 271.308 134.324V134.18C271.308 133.328 271.074 132.674 270.606 132.218C270.15 131.762 269.508 131.534 268.68 131.534C267.852 131.534 267.204 131.762 266.736 132.218C266.28 132.674 266.052 133.328 266.052 134.18V134.324C266.052 135.176 266.28 135.83 266.736 136.286C267.204 136.742 267.852 136.97 268.68 136.97Z" fill="white"/>
<path d="M50.418 172.768H50.348L49.522 174.406L47.184 178.662L44.846 174.406L44.02 172.768H43.95V181H42.802V171.228H44.37L47.17 176.492H47.24L50.054 171.228H51.566V181H50.418V172.768ZM54.8213 181V180.02H56.1933V172.208H54.8213V171.228H58.7413V172.208H57.3693V180.02H58.7413V181H54.8213ZM65.4528 181.168C64.2115 181.168 63.2455 180.748 62.5548 179.908C61.8641 179.059 61.5188 177.813 61.5188 176.17C61.5188 174.527 61.8641 173.267 62.5548 172.39C63.2455 171.503 64.2115 171.06 65.4528 171.06C66.2741 171.06 66.9601 171.247 67.5108 171.62C68.0708 171.993 68.5048 172.521 68.8128 173.202L67.8608 173.776C67.6648 173.272 67.3661 172.871 66.9648 172.572C66.5635 172.264 66.0595 172.11 65.4528 172.11C65.0328 172.11 64.6548 172.189 64.3188 172.348C63.9921 172.507 63.7121 172.735 63.4788 173.034C63.2548 173.323 63.0821 173.673 62.9608 174.084C62.8395 174.485 62.7788 174.938 62.7788 175.442V176.898C62.7788 177.906 63.0121 178.695 63.4788 179.264C63.9455 179.833 64.6035 180.118 65.4528 180.118C66.0781 180.118 66.6008 179.959 67.0208 179.642C67.4408 179.315 67.7488 178.886 67.9448 178.354L68.8828 178.942C68.5748 179.633 68.1315 180.179 67.5528 180.58C66.9741 180.972 66.2741 181.168 65.4528 181.168ZM77.9421 176.576H73.0001V181H71.8241V171.228H73.0001V175.54H77.9421V171.228H79.1181V181H77.9421V176.576ZM88.9605 181L87.9805 178.116H84.0325L83.0525 181H81.8625L85.2785 171.228H86.7765L90.1925 181H88.9605ZM86.0345 172.32H85.9645L84.3125 177.08H87.6865L86.0345 172.32ZM92.9313 181V171.228H98.8953V172.264H94.1073V175.54H98.6153V176.576H94.1073V179.964H98.8953V181H92.9313ZM102.213 181V171.228H103.389V179.964H107.547V181H102.213ZM117.52 181.168C116.726 181.168 116.05 181.019 115.49 180.72C114.93 180.412 114.454 179.992 114.062 179.46L114.93 178.732C115.275 179.189 115.658 179.539 116.078 179.782C116.498 180.015 116.992 180.132 117.562 180.132C118.262 180.132 118.794 179.964 119.158 179.628C119.531 179.292 119.718 178.844 119.718 178.284C119.718 177.817 119.578 177.458 119.298 177.206C119.018 176.954 118.556 176.753 117.912 176.604L117.114 176.422C116.218 176.217 115.532 175.909 115.056 175.498C114.589 175.078 114.356 174.49 114.356 173.734C114.356 173.305 114.435 172.922 114.594 172.586C114.752 172.25 114.972 171.97 115.252 171.746C115.541 171.522 115.882 171.354 116.274 171.242C116.675 171.121 117.114 171.06 117.59 171.06C118.327 171.06 118.957 171.195 119.48 171.466C120.012 171.737 120.46 172.133 120.824 172.656L119.942 173.3C119.671 172.927 119.344 172.633 118.962 172.418C118.579 172.203 118.103 172.096 117.534 172.096C116.908 172.096 116.414 172.231 116.05 172.502C115.695 172.763 115.518 173.16 115.518 173.692C115.518 174.159 115.667 174.513 115.966 174.756C116.274 174.989 116.736 175.176 117.352 175.316L118.15 175.498C119.111 175.713 119.806 176.039 120.236 176.478C120.665 176.917 120.88 177.5 120.88 178.228C120.88 178.676 120.8 179.082 120.642 179.446C120.492 179.81 120.273 180.118 119.984 180.37C119.694 180.622 119.34 180.818 118.92 180.958C118.509 181.098 118.042 181.168 117.52 181.168ZM127.474 181.168C126.233 181.168 125.267 180.748 124.576 179.908C123.886 179.059 123.54 177.813 123.54 176.17C123.54 174.527 123.886 173.267 124.576 172.39C125.267 171.503 126.233 171.06 127.474 171.06C128.296 171.06 128.982 171.247 129.532 171.62C130.092 171.993 130.526 172.521 130.834 173.202L129.882 173.776C129.686 173.272 129.388 172.871 128.986 172.572C128.585 172.264 128.081 172.11 127.474 172.11C127.054 172.11 126.676 172.189 126.34 172.348C126.014 172.507 125.734 172.735 125.5 173.034C125.276 173.323 125.104 173.673 124.982 174.084C124.861 174.485 124.8 174.938 124.8 175.442V176.898C124.8 177.906 125.034 178.695 125.5 179.264C125.967 179.833 126.625 180.118 127.474 180.118C128.1 180.118 128.622 179.959 129.042 179.642C129.462 179.315 129.77 178.886 129.966 178.354L130.904 178.942C130.596 179.633 130.153 180.179 129.574 180.58C128.996 180.972 128.296 181.168 127.474 181.168ZM137.322 181.168C136.687 181.168 136.113 181.061 135.6 180.846C135.096 180.622 134.662 180.3 134.298 179.88C133.943 179.451 133.668 178.923 133.472 178.298C133.276 177.663 133.178 176.935 133.178 176.114C133.178 175.293 133.276 174.569 133.472 173.944C133.668 173.319 133.943 172.791 134.298 172.362C134.662 171.933 135.096 171.611 135.6 171.396C136.113 171.172 136.687 171.06 137.322 171.06C137.947 171.06 138.517 171.172 139.03 171.396C139.543 171.611 139.977 171.933 140.332 172.362C140.696 172.791 140.976 173.319 141.172 173.944C141.368 174.569 141.466 175.293 141.466 176.114C141.466 176.935 141.368 177.663 141.172 178.298C140.976 178.923 140.696 179.451 140.332 179.88C139.977 180.3 139.543 180.622 139.03 180.846C138.517 181.061 137.947 181.168 137.322 181.168ZM137.322 180.118C137.742 180.118 138.129 180.043 138.484 179.894C138.839 179.745 139.142 179.53 139.394 179.25C139.655 178.97 139.856 178.634 139.996 178.242C140.136 177.85 140.206 177.411 140.206 176.926V175.302C140.206 174.817 140.136 174.378 139.996 173.986C139.856 173.594 139.655 173.258 139.394 172.978C139.142 172.698 138.839 172.483 138.484 172.334C138.129 172.185 137.742 172.11 137.322 172.11C136.902 172.11 136.515 172.185 136.16 172.334C135.805 172.483 135.497 172.698 135.236 172.978C134.984 173.258 134.788 173.594 134.648 173.986C134.508 174.378 134.438 174.817 134.438 175.302V176.926C134.438 177.411 134.508 177.85 134.648 178.242C134.788 178.634 134.984 178.97 135.236 179.25C135.497 179.53 135.805 179.745 136.16 179.894C136.515 180.043 136.902 180.118 137.322 180.118ZM147.717 172.264V181H146.541V172.264H143.433V171.228H150.825V172.264H147.717ZM157.177 172.264V181H156.001V172.264H152.893V171.228H160.285V172.264H157.177Z" fill="white"/>
<defs>
<filter id="filter0_f_555_3196" x="-35.5" y="-38" width="441" height="295" filterUnits="userSpaceOnUse" color-interpolation-filters="sRGB">
<feFlood flood-opacity="0" result="BackgroundImageFix"/>
<feBlend mode="normal" in="SourceGraphic" in2="BackgroundImageFix" result="shape"/>
<feGaussianBlur stdDeviation="13.5" result="effect1_foregroundBlur_555_3196"/>
</filter>
<linearGradient id="paint0_linear_555_3196" x1="740.706" y1="254.21" x2="395.054" y2="479.601" gradientUnits="userSpaceOnUse">
<stop stop-color="#0A2540"/>
<stop offset="0.332338" stop-color="#0A2540"/>
<stop offset="0.538153" stop-color="#1E6CDF"/>
<stop offset="1" stop-color="white"/>
</linearGradient>
</defs>
</svg>
