<svg width="280" height="280" viewBox="0 0 280 280" fill="none" xmlns="http://www.w3.org/2000/svg">
<g filter="url(#filter0_d_453_5631)">
<rect x="14" y="10" width="252" height="252" rx="4" fill="#0A2540" fill-opacity="0.08" shape-rendering="crispEdges"/>
<rect x="14.5" y="10.5" width="251" height="251" rx="3.5" stroke="#E5E5E5" shape-rendering="crispEdges"/>
<path d="M105.062 53.8125H57.8125V101.062H105.062V53.8125ZM116.875 42V112.875H46V42H116.875ZM69.625 65.625H93.25V89.25H69.625V65.625ZM223.188 53.8125H175.938V101.062H223.188V53.8125ZM235 42V112.875H164.125V42H235ZM187.75 65.625H211.375V89.25H187.75V65.625ZM105.062 171.938H57.8125V219.188H105.062V171.938ZM116.875 160.125V231H46V160.125H116.875ZM69.625 183.75H93.25V207.375H69.625V183.75ZM128.688 42H140.5V53.8125H128.688V42ZM140.5 53.8125H152.312V65.625H140.5V53.8125ZM128.688 65.625H140.5V77.4375H128.688V65.625ZM140.5 77.4375H152.312V89.25H140.5V77.4375ZM128.688 89.25H140.5V101.062H128.688V89.25ZM140.5 101.062H152.312V112.875H140.5V101.062ZM128.688 112.875H140.5V124.688H128.688V112.875ZM128.688 136.5H140.5V148.312H128.688V136.5ZM140.5 148.312H152.312V160.125H140.5V148.312ZM128.688 160.125H140.5V171.938H128.688V160.125ZM140.5 171.938H152.312V183.75H140.5V171.938ZM128.688 183.75H140.5V195.562H128.688V183.75ZM140.5 195.562H152.312V207.375H140.5V195.562ZM128.688 207.375H140.5V219.188H128.688V207.375ZM140.5 219.188H152.312V231H140.5V219.188ZM223.188 136.5H235V148.312H223.188V136.5ZM57.8125 136.5H69.625V148.312H57.8125V136.5ZM69.625 124.688H81.4375V136.5H69.625V124.688ZM46 124.688H57.8125V136.5H46V124.688ZM93.25 124.688H105.062V136.5H93.25V124.688ZM105.062 136.5H116.875V148.312H105.062V136.5ZM116.875 124.688H128.688V136.5H116.875V124.688ZM152.312 136.5H164.125V148.312H152.312V136.5ZM164.125 124.688H175.938V136.5H164.125V124.688ZM175.938 136.5H187.75V148.312H175.938V136.5ZM187.75 124.688H199.562V136.5H187.75V124.688ZM199.562 136.5H211.375V148.312H199.562V136.5ZM211.375 124.688H223.188V136.5H211.375V124.688ZM223.188 160.125H235V171.938H223.188V160.125ZM152.312 160.125H164.125V171.938H152.312V160.125ZM164.125 148.312H175.938V160.125H164.125V148.312ZM175.938 160.125H187.75V171.938H175.938V160.125ZM199.562 160.125H211.375V171.938H199.562V160.125ZM211.375 148.312H223.188V160.125H211.375V148.312ZM223.188 183.75H235V195.562H223.188V183.75ZM152.312 183.75H164.125V195.562H152.312V183.75ZM164.125 171.938H175.938V183.75H164.125V171.938ZM187.75 171.938H199.562V183.75H187.75V171.938ZM199.562 183.75H211.375V195.562H199.562V183.75ZM211.375 171.938H223.188V183.75H211.375V171.938ZM223.188 207.375H235V219.188H223.188V207.375ZM164.125 195.562H175.938V207.375H164.125V195.562ZM175.938 207.375H187.75V219.188H175.938V207.375ZM187.75 195.562H199.562V207.375H187.75V195.562ZM199.562 207.375H211.375V219.188H199.562V207.375ZM164.125 219.188H175.938V231H164.125V219.188ZM187.75 219.188H199.562V231H187.75V219.188ZM211.375 219.188H223.188V231H211.375V219.188Z" fill="#0A2540"/>
</g>
<defs>
<filter id="filter0_d_453_5631" x="0" y="0" width="280" height="280" filterUnits="userSpaceOnUse" color-interpolation-filters="sRGB">
<feFlood flood-opacity="0" result="BackgroundImageFix"/>
<feColorMatrix in="SourceAlpha" type="matrix" values="0 0 0 0 0 0 0 0 0 0 0 0 0 0 0 0 0 0 127 0" result="hardAlpha"/>
<feOffset dy="4"/>
<feGaussianBlur stdDeviation="7"/>
<feComposite in2="hardAlpha" operator="out"/>
<feColorMatrix type="matrix" values="0 0 0 0 0 0 0 0 0 0 0 0 0 0 0 0 0 0 0.05 0"/>
<feBlend mode="normal" in2="BackgroundImageFix" result="effect1_dropShadow_453_5631"/>
<feBlend mode="normal" in="SourceGraphic" in2="effect1_dropShadow_453_5631" result="shape"/>
</filter>
</defs>
</svg>
