<svg width="43" height="44" viewBox="0 0 43 44" fill="none" xmlns="http://www.w3.org/2000/svg">
<rect width="43" height="43.0999" rx="8" fill="white"/>
<path fill-rule="evenodd" clip-rule="evenodd" d="M13.3333 18.1667C13.3333 16.0007 14.1937 13.9235 15.7253 12.392C17.2568 10.8604 19.3341 10 21.5 10C23.6659 10 25.7432 10.8604 27.2747 12.392C28.8063 13.9235 29.6667 16.0007 29.6667 18.1667V22.558L31.7923 26.8093C31.8902 27.005 31.9364 27.2224 31.9266 27.441C31.9167 27.6596 31.8512 27.872 31.7362 28.0581C31.6211 28.2442 31.4605 28.3978 31.2694 28.5043C31.0783 28.6108 30.8631 28.6667 30.6443 28.6667H26.0197C25.7602 29.6679 25.1755 30.5547 24.3575 31.1877C23.5394 31.8208 22.5344 32.1643 21.5 32.1643C20.4656 32.1643 19.4606 31.8208 18.6425 31.1877C17.8245 30.5547 17.2398 29.6679 16.9803 28.6667H12.3557C12.1369 28.6667 11.9217 28.6108 11.7306 28.5043C11.5396 28.3978 11.3789 28.2442 11.2638 28.0581C11.1488 27.872 11.0833 27.6596 11.0734 27.441C11.0636 27.2224 11.1098 27.005 11.2077 26.8093L13.3333 22.558V18.1667ZM19.4793 28.6667C19.6841 29.0214 19.9787 29.3159 20.3334 29.5207C20.6881 29.7254 21.0904 29.8332 21.5 29.8332C21.9096 29.8332 22.3119 29.7254 22.6666 29.5207C23.0213 29.3159 23.3159 29.0214 23.5207 28.6667H19.4793ZM21.5 12.3333C19.9529 12.3333 18.4692 12.9479 17.3752 14.0419C16.2812 15.1358 15.6667 16.6196 15.6667 18.1667V22.558C15.6666 22.9201 15.5824 23.2771 15.4205 23.601L14.0555 26.3333H28.9457L27.5807 23.601C27.4184 23.2772 27.3337 22.9202 27.3333 22.558V18.1667C27.3333 16.6196 26.7188 15.1358 25.6248 14.0419C24.5308 12.9479 23.0471 12.3333 21.5 12.3333Z" fill="#0A2540"/>
</svg>
