<svg width="13" height="13" viewBox="0 0 13 13" fill="none" xmlns="http://www.w3.org/2000/svg">
<g clip-path="url(#clip0_363_3363)">
<path fill-rule="evenodd" clip-rule="evenodd" d="M2.825 8.9C2.85993 8.85343 2.90522 8.81563 2.95729 8.78959C3.00937 8.76355 3.06678 8.75 3.125 8.75H5C5.09946 8.75 5.19484 8.78951 5.26516 8.85983C5.33549 8.93016 5.375 9.02554 5.375 9.125C5.375 9.22446 5.33549 9.31984 5.26516 9.39017C5.19484 9.46049 5.09946 9.5 5 9.5H3.3125L1.625 11.75H11.375L9.6875 9.5H8C7.90054 9.5 7.80516 9.46049 7.73483 9.39017C7.66451 9.31984 7.625 9.22446 7.625 9.125C7.625 9.02554 7.66451 8.93016 7.73483 8.85983C7.80516 8.78951 7.90054 8.75 8 8.75H9.875C9.93322 8.75 9.99063 8.76355 10.0427 8.78959C10.0948 8.81563 10.1401 8.85343 10.175 8.9L12.425 11.9C12.4668 11.9557 12.4922 12.022 12.4985 12.0913C12.5047 12.1607 12.4916 12.2304 12.4604 12.2927C12.4293 12.355 12.3814 12.4074 12.3221 12.444C12.2629 12.4806 12.1946 12.5 12.125 12.5H0.875C0.805358 12.5 0.737092 12.4806 0.677851 12.444C0.61861 12.4074 0.570735 12.355 0.53959 12.2927C0.508445 12.2304 0.495261 12.1607 0.501515 12.0913C0.50777 12.022 0.533215 11.9557 0.575 11.9L2.825 8.9Z" fill="#EE1C35"/>
<path fill-rule="evenodd" clip-rule="evenodd" d="M3.5 3.49972C3.50005 2.92239 3.66669 2.35734 3.97992 1.87237C4.29315 1.38739 4.73966 1.0031 5.26588 0.765602C5.7921 0.528103 6.37567 0.447486 6.94656 0.533425C7.51746 0.619363 8.05144 0.868206 8.48442 1.25009C8.9174 1.63198 9.23099 2.13069 9.38757 2.68639C9.54414 3.24208 9.53705 3.83115 9.36714 4.38291C9.19723 4.93467 8.87172 5.42569 8.42967 5.79704C7.98762 6.16839 7.4478 6.40431 6.875 6.47647V10.6247C6.875 10.7242 6.83549 10.8196 6.76517 10.8899C6.69484 10.9602 6.59946 10.9997 6.5 10.9997C6.40054 10.9997 6.30516 10.9602 6.23484 10.8899C6.16451 10.8196 6.125 10.7242 6.125 10.6247V6.47722C5.39972 6.38585 4.73277 6.0328 4.24941 5.4844C3.76606 4.936 3.49957 4.23073 3.5 3.49972Z" fill="#EE1C35"/>
</g>
<defs>
<clipPath id="clip0_363_3363">
<rect width="12" height="12" fill="white" transform="translate(0.5 0.5)"/>
</clipPath>
</defs>
</svg>
