<svg width="43" height="44" viewBox="0 0 43 44" fill="none" xmlns="http://www.w3.org/2000/svg">
<path d="M28.6666 17.9665C28.6666 19.8672 27.9116 21.6901 26.5676 23.0341C25.2236 24.3781 23.4007 25.1331 21.5 25.1331C19.5993 25.1331 17.7764 24.3781 16.4324 23.0341C15.0884 21.6901 14.3333 19.8672 14.3333 17.9665C14.3333 16.0658 15.0884 14.2429 16.4324 12.8989C17.7764 11.5549 19.5993 10.7998 21.5 10.7998C23.4007 10.7998 25.2236 11.5549 26.5676 12.8989C27.9116 14.2429 28.6666 16.0658 28.6666 17.9665Z" fill="#0A2540"/>
<path fill-rule="evenodd" clip-rule="evenodd" d="M20.769 39.4523C11.2131 39.0689 3.58331 31.1999 3.58331 21.55C3.58331 11.6546 11.6046 3.6333 21.5 3.6333C31.3954 3.6333 39.4166 11.6546 39.4166 21.55C39.4166 31.4453 31.3954 39.4666 21.5 39.4666H21.2545C21.0921 39.4666 20.9302 39.4619 20.769 39.4523ZM10.0029 32.8554C9.8689 32.4707 9.8233 32.0608 9.86945 31.656C9.9156 31.2513 10.0523 30.8622 10.2694 30.5175C10.4866 30.1728 10.7785 29.8815 11.1237 29.6651C11.4688 29.4487 11.8582 29.3129 12.263 29.2676C19.247 28.4945 23.796 28.5643 30.7459 29.2837C31.1512 29.3259 31.5416 29.4601 31.8873 29.676C32.233 29.8919 32.5249 30.1838 32.7407 30.5295C32.9565 30.8753 33.0905 31.2657 33.1326 31.6711C33.1748 32.0765 33.1238 32.4861 32.9837 32.8688C35.9624 29.8553 37.6305 25.7872 37.625 21.55C37.625 12.6445 30.4055 5.42497 21.5 5.42497C12.5945 5.42497 5.37498 12.6445 5.37498 21.55C5.37498 25.9539 7.14067 29.9457 10.0029 32.8554Z" fill="#0A2540"/>
</svg>
