<svg width="210" height="211" viewBox="0 0 210 211" fill="none" xmlns="http://www.w3.org/2000/svg">
<rect y="0.5" width="210" height="210" rx="10" fill="#EFF7FE"/>
<g clip-path="url(#clip0_453_4918)">
<path d="M70.875 25.875H25.375V71.375H70.875V25.875ZM82.25 14.5V82.75H14V14.5H82.25ZM36.75 37.25H59.5V60H36.75V37.25ZM184.625 25.875H139.125V71.375H184.625V25.875ZM196 14.5V82.75H127.75V14.5H196ZM150.5 37.25H173.25V60H150.5V37.25ZM70.875 139.625H25.375V185.125H70.875V139.625ZM82.25 128.25V196.5H14V128.25H82.25ZM36.75 151H59.5V173.75H36.75V151ZM93.625 14.5H105V25.875H93.625V14.5ZM105 25.875H116.375V37.25H105V25.875ZM93.625 37.25H105V48.625H93.625V37.25ZM105 48.625H116.375V60H105V48.625ZM93.625 60H105V71.375H93.625V60ZM105 71.375H116.375V82.75H105V71.375ZM93.625 82.75H105V94.125H93.625V82.75ZM93.625 105.5H105V116.875H93.625V105.5ZM105 116.875H116.375V128.25H105V116.875ZM93.625 128.25H105V139.625H93.625V128.25ZM105 139.625H116.375V151H105V139.625ZM93.625 151H105V162.375H93.625V151ZM105 162.375H116.375V173.75H105V162.375ZM93.625 173.75H105V185.125H93.625V173.75ZM105 185.125H116.375V196.5H105V185.125ZM184.625 105.5H196V116.875H184.625V105.5ZM25.375 105.5H36.75V116.875H25.375V105.5ZM36.75 94.125H48.125V105.5H36.75V94.125ZM14 94.125H25.375V105.5H14V94.125ZM59.5 94.125H70.875V105.5H59.5V94.125ZM70.875 105.5H82.25V116.875H70.875V105.5ZM82.25 94.125H93.625V105.5H82.25V94.125ZM116.375 105.5H127.75V116.875H116.375V105.5ZM127.75 94.125H139.125V105.5H127.75V94.125ZM139.125 105.5H150.5V116.875H139.125V105.5ZM150.5 94.125H161.875V105.5H150.5V94.125ZM161.875 105.5H173.25V116.875H161.875V105.5ZM173.25 94.125H184.625V105.5H173.25V94.125ZM184.625 128.25H196V139.625H184.625V128.25ZM116.375 128.25H127.75V139.625H116.375V128.25ZM127.75 116.875H139.125V128.25H127.75V116.875ZM139.125 128.25H150.5V139.625H139.125V128.25ZM161.875 128.25H173.25V139.625H161.875V128.25ZM173.25 116.875H184.625V128.25H173.25V116.875ZM184.625 151H196V162.375H184.625V151ZM116.375 151H127.75V162.375H116.375V151ZM127.75 139.625H139.125V151H127.75V139.625ZM150.5 139.625H161.875V151H150.5V139.625ZM161.875 151H173.25V162.375H161.875V151ZM173.25 139.625H184.625V151H173.25V139.625ZM184.625 173.75H196V185.125H184.625V173.75ZM127.75 162.375H139.125V173.75H127.75V162.375ZM139.125 173.75H150.5V185.125H139.125V173.75ZM150.5 162.375H161.875V173.75H150.5V162.375ZM161.875 173.75H173.25V185.125H161.875V173.75ZM127.75 185.125H139.125V196.5H127.75V185.125ZM150.5 185.125H161.875V196.5H150.5V185.125ZM173.25 185.125H184.625V196.5H173.25V185.125Z" fill="#0A2540"/>
</g>
<defs>
<clipPath id="clip0_453_4918">
<rect width="182" height="182" fill="white" transform="translate(14 14.5)"/>
</clipPath>
</defs>
</svg>
