<svg width="168" height="140" viewBox="0 0 168 140" fill="none" xmlns="http://www.w3.org/2000/svg">
<g filter="url(#filter0_f_363_3409)">
<rect x="36.5" y="59.0176" width="87" height="46" rx="23" transform="rotate(-15 36.5 59.0176)" fill="#BCD7FF"/>
</g>
<path d="M91.168 66.4342L78.8346 78.7676M63.418 54.1009V84.9342C63.418 85.752 63.7428 86.5363 64.3211 87.1145C64.8993 87.6927 65.6836 88.0176 66.5013 88.0176H103.501C104.319 88.0176 105.103 87.6927 105.682 87.1145C106.26 86.5363 106.585 85.752 106.585 84.9342V60.2676C106.585 59.4498 106.26 58.6656 105.682 58.0873C105.103 57.5091 104.319 57.1842 103.501 57.1842H85.0013L78.8346 51.0176H66.5013C65.6836 51.0176 64.8993 51.3424 64.3211 51.9207C63.7428 52.4989 63.418 53.2832 63.418 54.1009ZM85.0013 81.8509C83.7866 81.8509 82.5837 81.6117 81.4615 81.1468C80.3392 80.6819 79.3195 80.0006 78.4606 79.1416C77.6016 78.2827 76.9203 77.263 76.4554 76.1407C75.9906 75.0185 75.7513 73.8156 75.7513 72.6009C75.7513 71.3862 75.9906 70.1834 76.4554 69.0611C76.9203 67.9388 77.6016 66.9191 78.4606 66.0602C79.3195 65.2012 80.3392 64.5199 81.4615 64.055C82.5837 63.5902 83.7866 63.3509 85.0013 63.3509C87.4546 63.3509 89.8073 64.3255 91.542 66.0602C93.2767 67.7949 94.2513 70.1477 94.2513 72.6009C94.2513 75.0542 93.2767 77.4069 91.542 79.1416C89.8073 80.8764 87.4546 81.8509 85.0013 81.8509Z" stroke="#0A2540" stroke-width="2"/>
<defs>
<filter id="filter0_f_363_3409" x="0.933575" y="0.934063" width="167.074" height="138.083" filterUnits="userSpaceOnUse" color-interpolation-filters="sRGB">
<feFlood flood-opacity="0" result="BackgroundImageFix"/>
<feBlend mode="normal" in="SourceGraphic" in2="BackgroundImageFix" result="shape"/>
<feGaussianBlur stdDeviation="20.365" result="effect1_foregroundBlur_363_3409"/>
</filter>
</defs>
</svg>
