<svg width="168" height="139" viewBox="0 0 168 139" fill="none" xmlns="http://www.w3.org/2000/svg">
<g filter="url(#filter0_f_363_3421)">
<rect x="36.5" y="58.9629" width="87" height="46" rx="23" transform="rotate(-15 36.5 58.9629)" fill="#BCD7FF"/>
</g>
<path d="M85.2793 47.5L86.1514 47.5186C90.5065 47.6753 94.7774 48.7888 98.6602 50.7832L98.668 50.7861L98.6748 50.79C98.7508 50.8261 98.8191 50.8767 98.875 50.9395C98.931 51.0024 98.9739 51.0765 99.001 51.1562C99.028 51.2359 99.0383 51.3204 99.0322 51.4043C99.0261 51.4883 99.0041 51.5705 98.9658 51.6455H98.9648C98.9265 51.7203 98.8739 51.7868 98.8096 51.8408C98.7451 51.8949 98.6702 51.9352 98.5898 51.96C98.5094 51.9847 98.4245 51.9939 98.3408 51.9854C98.2991 51.9811 98.2577 51.9724 98.2178 51.96L98.0947 51.9072L98.0889 51.9033L97.6064 51.6631C92.6071 49.2268 87.0044 48.2904 81.4775 48.9746C75.7723 49.6809 70.4096 52.0819 66.082 55.8662C61.7545 59.6505 58.661 64.645 57.2002 70.2051C55.7397 75.764 55.9782 81.6329 57.8857 87.0547V87.0557C57.9968 87.3768 58.2048 87.6558 58.4805 87.8545C58.756 88.0531 59.0861 88.1621 59.4258 88.166H110.566V88.165C110.906 88.1654 111.237 88.0603 111.514 87.8633C111.79 87.6666 111.997 87.3887 112.107 87.0684L112.108 87.0693C113.403 83.387 113.937 79.4796 113.677 75.585C113.417 71.6906 112.369 67.8896 110.597 64.4121L110.583 64.3867L110.53 64.2705C110.517 64.23 110.507 64.1881 110.502 64.1455C110.492 64.0606 110.498 63.9747 110.522 63.8926C110.546 63.8104 110.587 63.7339 110.642 63.668C110.696 63.602 110.764 63.5478 110.84 63.5088C110.916 63.4698 111 63.4461 111.085 63.4404C111.17 63.4348 111.256 63.4471 111.337 63.4756C111.417 63.5041 111.491 63.5486 111.554 63.6064C111.595 63.6449 111.629 63.6904 111.659 63.7383V63.7422L111.714 63.8496C113.565 67.4789 114.66 71.4465 114.933 75.5117C115.205 79.5769 114.648 83.6553 113.297 87.499C113.097 88.0631 112.728 88.5515 112.239 88.8965C111.75 89.2415 111.166 89.4261 110.567 89.4248H59.4336C58.833 89.4222 58.2479 89.2342 57.7588 88.8857C57.2695 88.5371 56.8998 88.0446 56.7012 87.4775L56.415 86.625C55.0528 82.3475 54.6666 77.8148 55.2891 73.3613C55.953 68.6108 57.7462 64.0889 60.5176 60.1738C63.289 56.2588 66.9579 53.0644 71.2178 50.8594C75.2115 48.7921 79.6152 47.6503 84.1025 47.5137L85.001 47.5H85.2793ZM109.852 52.0176C109.934 52.0176 110.016 52.0338 110.093 52.0654C110.169 52.0971 110.239 52.1436 110.298 52.2021C110.356 52.2607 110.402 52.3308 110.434 52.4072C110.465 52.4836 110.482 52.5657 110.482 52.6484C110.482 52.7311 110.465 52.8133 110.434 52.8896C110.402 52.9658 110.356 53.0354 110.298 53.0938L83.1865 80.2041C83.0683 80.3222 82.9083 80.3887 82.7412 80.3887C82.5741 80.3887 82.4141 80.3222 82.2959 80.2041C82.1777 80.0859 82.1114 79.9259 82.1113 79.7588C82.1113 79.5916 82.1777 79.4307 82.2959 79.3125L109.406 52.2021C109.465 52.1437 109.534 52.0971 109.61 52.0654C109.687 52.0338 109.769 52.0176 109.852 52.0176ZM81.8916 56.7744C85.1816 56.281 88.5417 56.5783 91.6943 57.6406L91.7178 57.6484L91.7422 57.6543C91.828 57.674 91.9091 57.7109 91.9795 57.7637C92.0498 57.8164 92.1084 57.8833 92.1514 57.96C92.1943 58.0368 92.2205 58.1223 92.2285 58.21C92.2365 58.2974 92.2263 58.3855 92.1982 58.4688C92.17 58.5521 92.125 58.6296 92.0654 58.6943C92.006 58.7589 91.9331 58.8097 91.8525 58.8447C91.7718 58.8797 91.6837 58.8982 91.5957 58.8975C91.5078 58.8966 91.4208 58.8772 91.3408 58.8408L91.3174 58.8301L91.293 58.8223L90.9121 58.6982C89.1271 58.1387 87.2716 57.8361 85.4014 57.7998L85 57.7959C82.2279 57.797 79.4871 58.383 76.957 59.5156C74.427 60.6483 72.1647 62.3024 70.3174 64.3691C68.47 66.4361 67.0789 68.8697 66.2363 71.5107C65.3938 74.1516 65.1188 76.9406 65.4277 79.6953C65.4369 79.7776 65.4293 79.8609 65.4062 79.9404C65.3832 80.02 65.3447 80.0946 65.293 80.1592C65.2412 80.2237 65.177 80.2776 65.1045 80.3174C65.0361 80.3549 64.9611 80.3785 64.8838 80.3887H64.7939C64.6384 80.3895 64.4882 80.3319 64.3721 80.2285C64.285 80.151 64.2219 80.0515 64.1885 79.9414L64.165 79.8281C64.0813 79.0549 64.0388 78.2778 64.0381 77.5C64.039 74.1731 64.8316 70.8935 66.3506 67.9336C67.8696 64.9739 70.0712 62.418 72.7734 60.4775C75.4758 58.5371 78.6015 57.2678 81.8916 56.7744Z" fill="#0A2540" stroke="#0A2540"/>
<defs>
<filter id="filter0_f_363_3421" x="0.933575" y="0.879375" width="167.074" height="138.083" filterUnits="userSpaceOnUse" color-interpolation-filters="sRGB">
<feFlood flood-opacity="0" result="BackgroundImageFix"/>
<feBlend mode="normal" in="SourceGraphic" in2="BackgroundImageFix" result="shape"/>
<feGaussianBlur stdDeviation="20.365" result="effect1_foregroundBlur_363_3421"/>
</filter>
</defs>
</svg>
