<svg width="12" height="13" viewBox="0 0 12 13" fill="none" xmlns="http://www.w3.org/2000/svg">
<g clip-path="url(#clip0_453_5529)">
<path d="M0.00012207 2.42586V12.0259H3.00012V2.42586H0.00012207ZM2.40012 9.62586H0.600122V9.02586H2.40012V9.62586ZM2.40012 7.82586H0.600122V7.22586H2.40012V7.82586ZM3.60012 2.42586V12.0259H6.60012V2.42586H3.60012ZM6.00012 9.62586H4.20012V9.02586H6.00012V9.62586ZM6.00012 7.82586H4.20012V7.22586H6.00012V7.82586ZM6.60012 2.72586L9.06012 11.9659L11.9401 11.1859L9.54012 2.00586L6.60012 2.72586ZM10.8001 9.08586L9.06012 9.56586L8.88012 8.96586L10.6201 8.48586L10.8001 9.08586ZM10.3201 7.34586L8.58012 7.82586L8.46012 7.22586L10.2001 6.74586L10.3201 7.34586Z" fill="#A0A0A0"/>
</g>
<defs>
<clipPath id="clip0_453_5529">
<rect width="12" height="12" fill="white" transform="translate(0.00012207 0.625)"/>
</clipPath>
</defs>
</svg>
