<svg width="14" height="15" viewBox="0 0 14 15" fill="none" xmlns="http://www.w3.org/2000/svg">
<path d="M7.99372 5.44007C7.91912 5.23029 7.78152 5.04869 7.59974 4.92012C7.41796 4.79156 7.2009 4.72231 6.97825 4.72185H6.14464C5.90681 4.72061 5.67698 4.80759 5.49957 4.96599C5.32217 5.12438 5.20979 5.34293 5.18419 5.57937C5.15858 5.81581 5.22155 6.05335 5.36093 6.24606C5.50031 6.43876 5.7062 6.57293 5.93877 6.62263L7.20811 6.89958C7.46766 6.9564 7.69706 7.10713 7.85223 7.32281C8.0074 7.53849 8.07739 7.8039 8.04877 8.06805C8.02014 8.33219 7.89492 8.57645 7.69715 8.75388C7.49938 8.93131 7.24302 9.0294 6.97732 9.0293H6.26003C5.79107 9.0293 5.39226 8.7302 5.24456 8.31201M6.61914 4.72185V3.64453M6.61914 10.1066V9.03023M2.12891 13.0026V10.6947H4.4368" stroke="#FAFAFA" stroke-linecap="round" stroke-linejoin="round"/>
<path d="M12.6471 5.89865C12.8922 7.20512 12.6965 8.55598 12.0908 9.73921C11.4851 10.9224 10.5037 11.8711 9.30057 12.4362C8.09744 13.0013 6.74071 13.151 5.44333 12.8616C4.14595 12.5723 2.98137 11.8603 2.13237 10.8375M0.852876 8.10684C0.607801 6.80038 0.803466 5.44952 1.40916 4.26629C2.01485 3.08306 2.99629 2.13443 4.19943 1.56931C5.40256 1.00418 6.75929 0.854545 8.05667 1.14389C9.35405 1.43323 10.5186 2.14516 11.3676 3.16796" stroke="#FAFAFA" stroke-linecap="round" stroke-linejoin="round"/>
<path d="M11.3665 1.00391V3.3118H9.05859" stroke="#FAFAFA" stroke-linecap="round" stroke-linejoin="round"/>
</svg>
