<svg width="14" height="15" viewBox="0 0 14 15" fill="none" xmlns="http://www.w3.org/2000/svg">
<path d="M1.16667 13.25C0.845833 13.25 0.571278 13.1359 0.343 12.9076C0.114722 12.6793 0.000388889 12.4046 0 12.0833V3.91667C0 3.59583 0.114333 3.32128 0.343 3.093C0.571667 2.86472 0.846222 2.75039 1.16667 2.75H9.33333C9.65417 2.75 9.92892 2.86433 10.1576 3.093C10.3862 3.32167 10.5004 3.59622 10.5 3.91667V12.0833C10.5 12.4042 10.3859 12.6789 10.1576 12.9076C9.92931 13.1362 9.65456 13.2504 9.33333 13.25H1.16667ZM5.25 8L6.70833 7.125L8.16667 8V3.91667H5.25V8Z" fill="#FAFAFA"/>
</svg>
