<svg width="14" height="14" viewBox="0 0 14 14" fill="none" xmlns="http://www.w3.org/2000/svg">
<path d="M7.0013 1.16602C3.7848 1.16602 1.16797 3.78285 1.16797 6.99935V9.4161C1.16797 10.0134 1.69122 10.4993 2.33464 10.4993H2.91797C3.07268 10.4993 3.22105 10.4379 3.33045 10.3285C3.43984 10.2191 3.5013 10.0707 3.5013 9.91602V6.91593C3.5013 6.76122 3.43984 6.61285 3.33045 6.50345C3.22105 6.39406 3.07268 6.3326 2.91797 6.3326H2.3883C2.71264 4.0751 4.65514 2.33268 7.0013 2.33268C9.34747 2.33268 11.29 4.0751 11.6143 6.3326H11.0846C10.9299 6.3326 10.7816 6.39406 10.6722 6.50345C10.5628 6.61285 10.5013 6.76122 10.5013 6.91593V10.4993C10.5013 11.1428 9.97805 11.666 9.33464 11.666H8.16797V11.0827H5.83464V12.8327H9.33464C10.6215 12.8327 11.668 11.7862 11.668 10.4993C12.3114 10.4993 12.8346 10.0134 12.8346 9.4161V6.99935C12.8346 3.78285 10.2178 1.16602 7.0013 1.16602Z" fill="#FAFAFA"/>
</svg>
