<svg width="28" height="29" viewBox="0 0 28 29" fill="none" xmlns="http://www.w3.org/2000/svg">
<path d="M18.6673 5.16667H5.83398C4.90573 5.16667 4.01549 5.53542 3.35911 6.19179C2.70273 6.84817 2.33398 7.73841 2.33398 8.66667V20.3333C2.33398 21.2616 2.70273 22.1518 3.35911 22.8082C4.01549 23.4646 4.90573 23.8333 5.83398 23.8333H18.6673M23.334 4H21.0007C20.3818 4 19.7883 4.24583 19.3507 4.68342C18.9132 5.121 18.6673 5.71449 18.6673 6.33333V22.6667C18.6673 23.2855 18.9132 23.879 19.3507 24.3166C19.7883 24.7542 20.3818 25 21.0007 25H23.334C23.9528 25 24.5463 24.7542 24.9839 24.3166C25.4215 23.879 25.6673 23.2855 25.6673 22.6667V6.33333C25.6673 5.71449 25.4215 5.121 24.9839 4.68342C24.5463 4.24583 23.9528 4 23.334 4Z" stroke="#4D4D4D" stroke-width="2" stroke-linecap="round" stroke-linejoin="round"/>
<path d="M14 16.834V16.8457M10.5 16.834V16.8457M7 16.834V16.8457M14 20.334V20.3457M10.5 20.334V20.3457M7 20.334V20.3457M14 9.83398H7V13.334H14V9.83398Z" stroke="#4D4D4D" stroke-width="1.5" stroke-linecap="round" stroke-linejoin="round"/>
</svg>
