<svg width="28" height="28" viewBox="0 0 28 28" fill="none" xmlns="http://www.w3.org/2000/svg">
<path d="M11.7672 21.349L14.0002 16.5L16.2332 21.349C16.8802 22.755 17.2042 23.458 16.8612 23.966L16.8322 24.006C16.4662 24.5 15.6442 24.5 14.0002 24.5C12.3562 24.5 11.5342 24.5 11.1682 24.007L11.1382 23.966C10.7962 23.458 11.1192 22.755 11.7672 21.349Z" stroke="#4D4D4D" stroke-width="1.5" stroke-linecap="round" stroke-linejoin="round"/>
<path d="M14 16.5C15.1046 16.5 16 15.6046 16 14.5C16 13.3954 15.1046 12.5 14 12.5C12.8954 12.5 12 13.3954 12 14.5C12 15.6046 12.8954 16.5 14 16.5Z" stroke="#4D4D4D" stroke-width="1.5" stroke-linecap="round" stroke-linejoin="round"/>
<path d="M6.00001 20.501C4.69898 18.7711 3.9969 16.6645 4.00001 14.5C4.00001 8.977 8.47701 4.5 14 4.5C19.523 4.5 24 8.977 24 14.5C24 16.752 23.256 18.83 22 20.501" stroke="#4D4D4D" stroke-width="1.5" stroke-linecap="round" stroke-linejoin="round"/>
<path d="M9.528 18.5002C8.75579 17.6369 8.24997 16.5685 8.07158 15.424C7.8932 14.2796 8.04989 13.108 8.52274 12.0506C8.99558 10.9932 9.76437 10.0953 10.7363 9.4653C11.7082 8.83526 12.8417 8.5 14 8.5C15.1583 8.5 16.2918 8.83526 17.2637 9.4653C18.2356 10.0953 19.0044 10.9932 19.4773 12.0506C19.9501 13.108 20.1068 14.2796 19.9284 15.424C19.75 16.5685 19.2442 17.6369 18.472 18.5002" stroke="#4D4D4D" stroke-width="1.5" stroke-linecap="round" stroke-linejoin="round"/>
</svg>
