<svg width="24" height="25" viewBox="0 0 24 25" fill="none" xmlns="http://www.w3.org/2000/svg">
<g clip-path="url(#clip0_776_650)">
<path fill-rule="evenodd" clip-rule="evenodd" d="M16.47 24.5049V15.2109H19.59L20.0568 11.5893H16.4688V9.27688C16.4688 8.22808 16.7604 7.51288 18.2652 7.51288H20.1828V4.27288C19.2542 4.17311 18.3207 4.12503 17.3868 4.12888C14.622 4.12888 12.7296 5.81728 12.7296 8.91688V11.5893H9.6V15.2109H12.7284V24.5049H1.3248C0.5928 24.5049 0 23.9121 0 23.1801V1.82968C0 1.09768 0.5928 0.504883 1.3248 0.504883H22.6752C23.4072 0.504883 24 1.09768 24 1.82968V23.1801C24 23.9121 23.4072 24.5049 22.6752 24.5049H16.47Z" fill="white"/>
</g>
<defs>
<clipPath id="clip0_776_650">
<rect width="24" height="24" fill="white" transform="translate(0 0.897461)"/>
</clipPath>
</defs>
</svg>
