<svg width="24" height="25" viewBox="0 0 24 25" fill="none" xmlns="http://www.w3.org/2000/svg">
<g clip-path="url(#clip0_776_653)">
<path fill-rule="evenodd" clip-rule="evenodd" d="M4.36364 0.504883C3.20633 0.504883 2.09642 0.964622 1.27808 1.78296C0.459739 2.6013 0 3.71121 0 4.86852V20.1412C0 21.2986 0.459739 22.4085 1.27808 23.2268C2.09642 24.0451 3.20633 24.5049 4.36364 24.5049H19.6364C20.7937 24.5049 21.9036 24.0451 22.7219 23.2268C23.5403 22.4085 24 21.2986 24 20.1412V4.86852C24 3.71121 23.5403 2.6013 22.7219 1.78296C21.9036 0.964622 20.7937 0.504883 19.6364 0.504883H4.36364ZM3.81818 9.23216C3.81818 7.93018 4.33539 6.68154 5.25602 5.7609C6.17665 4.84027 7.4253 4.32306 8.72727 4.32306H15.2727C16.5747 4.32306 17.8233 4.84027 18.744 5.7609C19.6646 6.68154 20.1818 7.93018 20.1818 9.23216V15.7776C20.1818 17.0796 19.6646 18.3282 18.744 19.2489C17.8233 20.1695 16.5747 20.6867 15.2727 20.6867H8.72727C7.4253 20.6867 6.17665 20.1695 5.25602 19.2489C4.33539 18.3282 3.81818 17.0796 3.81818 15.7776V9.23216ZM8.72727 5.41397C7.71463 5.41397 6.74346 5.81625 6.02741 6.53229C5.31136 7.24834 4.90909 8.21951 4.90909 9.23216V15.7776C4.90909 16.7903 5.31136 17.7614 6.02741 18.4775C6.74346 19.1935 7.71463 19.5958 8.72727 19.5958H15.2727C16.2854 19.5958 17.2565 19.1935 17.9726 18.4775C18.6886 17.7614 19.0909 16.7903 19.0909 15.7776V9.23216C19.0909 8.21951 18.6886 7.24834 17.9726 6.53229C17.2565 5.81625 16.2854 5.41397 15.2727 5.41397H8.72727ZM17.4545 8.32343C17.4545 8.56458 17.3587 8.79586 17.1882 8.96638C17.0177 9.1369 16.7864 9.2327 16.5453 9.2327C16.3041 9.2327 16.0728 9.1369 15.9023 8.96638C15.7318 8.79586 15.636 8.56458 15.636 8.32343C15.636 8.08227 15.7318 7.851 15.9023 7.68048C16.0728 7.50995 16.3041 7.41416 16.5453 7.41416C16.7864 7.41416 17.0177 7.50995 17.1882 7.68048C17.3587 7.851 17.4545 8.08227 17.4545 8.32343ZM7.81855 12.5049C7.81855 11.3959 8.25909 10.3323 9.04327 9.54815C9.82744 8.76397 10.891 8.32343 12 8.32343C13.109 8.32343 14.1726 8.76397 14.9567 9.54815C15.7409 10.3323 16.1815 11.3959 16.1815 12.5049C16.1815 13.6139 15.7409 14.6774 14.9567 15.4616C14.1726 16.2458 13.109 16.6863 12 16.6863C10.891 16.6863 9.82744 16.2458 9.04327 15.4616C8.25909 14.6774 7.81855 13.6139 7.81855 12.5049ZM12 9.41434C11.1803 9.41434 10.3942 9.73995 9.81465 10.3195C9.23506 10.8991 8.90945 11.6852 8.90945 12.5049C8.90945 13.3245 9.23506 14.1106 9.81465 14.6902C10.3942 15.2698 11.1803 15.5954 12 15.5954C12.8197 15.5954 13.6058 15.2698 14.1853 14.6902C14.7649 14.1106 15.0905 13.3245 15.0905 12.5049C15.0905 11.6852 14.7649 10.8991 14.1853 10.3195C13.6058 9.73995 12.8197 9.41434 12 9.41434Z" fill="white"/>
</g>
<defs>
<clipPath id="clip0_776_653">
<rect width="24" height="24" fill="white" transform="translate(0 0.897461)"/>
</clipPath>
</defs>
</svg>
