<svg width="24" height="25" viewBox="0 0 24 25" fill="none" xmlns="http://www.w3.org/2000/svg">
<g clip-path="url(#clip0_776_656)">
<path d="M3.42857 0.504883C1.5375 0.504883 0 2.04238 0 3.93345V21.0763C0 22.9674 1.5375 24.5049 3.42857 24.5049H20.5714C22.4625 24.5049 24 22.9674 24 21.0763V3.93345C24 2.04238 22.4625 0.504883 20.5714 0.504883H3.42857ZM19.3446 5.00488L13.7839 11.3585L20.325 20.0049H15.2036L11.1964 14.7602L6.60536 20.0049H4.06071L10.0071 13.2067L3.73393 5.00488H8.98393L12.6107 9.79953L16.8 5.00488H19.3446ZM17.3196 18.4835L8.21786 6.44595H6.70179L15.9054 18.4835H17.3143H17.3196Z" fill="white"/>
</g>
<defs>
<clipPath id="clip0_776_656">
<rect width="24" height="24" fill="white" transform="translate(0 0.897461)"/>
</clipPath>
</defs>
</svg>
