<svg width="24" height="25" viewBox="0 0 24 25" fill="none" xmlns="http://www.w3.org/2000/svg">
<g clip-path="url(#clip0_776_659)">
<path d="M21.3333 0.504883C22.0406 0.504883 22.7189 0.785834 23.219 1.28593C23.719 1.78603 24 2.46431 24 3.17155V21.8382C24 22.5455 23.719 23.2237 23.219 23.7238C22.7189 24.2239 22.0406 24.5049 21.3333 24.5049H2.66667C1.95942 24.5049 1.28115 24.2239 0.781048 23.7238C0.280951 23.2237 0 22.5455 0 21.8382V3.17155C0 2.46431 0.280951 1.78603 0.781048 1.28593C1.28115 0.785834 1.95942 0.504883 2.66667 0.504883H21.3333ZM20.6667 21.1716V14.1049C20.6667 12.9521 20.2087 11.8465 19.3936 11.0313C18.5784 10.2162 17.4728 9.75822 16.32 9.75822C15.1867 9.75822 13.8667 10.4516 13.2267 11.4916V10.0116H9.50667V21.1716H13.2267V14.5982C13.2267 13.5716 14.0533 12.7316 15.08 12.7316C15.5751 12.7316 16.0499 12.9282 16.3999 13.2783C16.75 13.6284 16.9467 14.1031 16.9467 14.5982V21.1716H20.6667ZM5.17333 7.91822C5.76742 7.91822 6.33717 7.68222 6.75725 7.26214C7.17733 6.84206 7.41333 6.2723 7.41333 5.67822C7.41333 4.43822 6.41333 3.42488 5.17333 3.42488C4.57571 3.42488 4.00257 3.66229 3.57999 4.08487C3.1574 4.50745 2.92 5.0806 2.92 5.67822C2.92 6.91822 3.93333 7.91822 5.17333 7.91822ZM7.02667 21.1716V10.0116H3.33333V21.1716H7.02667Z" fill="white"/>
</g>
<defs>
<clipPath id="clip0_776_659">
<rect width="24" height="24" fill="white" transform="translate(0 0.897461)"/>
</clipPath>
</defs>
</svg>
