<svg width="24" height="25" viewBox="0 0 24 25" fill="none" xmlns="http://www.w3.org/2000/svg">
<g clip-path="url(#clip0_776_662)">
<path d="M21.4267 0.885742H2.57464C1.15538 0.885742 0.00390625 2.03721 0.00390625 3.45647V22.3085C0.00390625 23.7277 1.15538 24.8792 2.57464 24.8792H21.4267C22.8459 24.8792 23.9974 23.7277 23.9974 22.3085V3.45647C23.9974 2.03721 22.8459 0.885742 21.4267 0.885742ZM14.8552 21.4355C14.4053 21.5158 14.2393 21.2374 14.2393 21.0071C14.2393 20.7178 14.25 19.2397 14.25 18.0454C14.25 17.2099 13.9715 16.6797 13.6448 16.4012C15.6264 16.1816 17.7152 15.9084 17.7152 12.4862C17.7152 11.5114 17.367 11.0241 16.7993 10.3974C16.8904 10.1671 17.1957 9.21919 16.7083 7.98738C15.9639 7.75709 14.2607 8.94605 14.2607 8.94605C13.5538 8.74789 12.7879 8.64613 12.0328 8.64613C11.2776 8.64613 10.5118 8.74789 9.80481 8.94605C9.80481 8.94605 8.1017 7.75709 7.35726 7.98738C6.8699 9.21383 7.16981 10.1618 7.26622 10.3974C6.69851 11.0241 6.43073 11.5114 6.43073 12.4862C6.43073 15.8924 8.4284 16.1816 10.41 16.4012C10.1529 16.6315 9.92264 17.0278 9.8423 17.5955C9.33351 17.8258 8.03208 18.2221 7.2555 16.851C6.76814 16.0048 5.88981 15.9352 5.88981 15.9352C5.02218 15.9245 5.83089 16.4815 5.83089 16.4815C6.40931 16.7493 6.81634 17.7776 6.81634 17.7776C7.33584 19.3682 9.82088 18.8326 9.82088 18.8326C9.82088 19.5771 9.83159 20.7875 9.83159 21.0071C9.83159 21.2374 9.67092 21.5158 9.21569 21.4355C5.68093 20.2519 3.20661 16.8885 3.20661 12.9575C3.20661 8.04094 6.9663 4.30803 11.8828 4.30803C16.7993 4.30803 20.784 8.04094 20.784 12.9575C20.7893 16.8885 18.39 20.2573 14.8552 21.4355ZM9.6013 18.1632C9.49954 18.1846 9.40314 18.1418 9.39242 18.0721C9.38171 17.9918 9.45134 17.9222 9.55309 17.9008C9.65485 17.89 9.75125 17.9329 9.76197 18.0025C9.77803 18.0721 9.70841 18.1418 9.6013 18.1632ZM9.09251 18.115C9.09251 18.1846 9.01217 18.2435 8.90506 18.2435C8.78723 18.2542 8.7069 18.1953 8.7069 18.115C8.7069 18.0454 8.78723 17.9864 8.89435 17.9864C8.9961 17.9757 9.09251 18.0347 9.09251 18.115ZM8.35878 18.0561C8.33735 18.1257 8.23024 18.1578 8.13919 18.1257C8.03743 18.1043 7.96781 18.0239 7.98923 17.9543C8.01066 17.8847 8.11777 17.8526 8.20882 17.874C8.31593 17.9061 8.38555 17.9864 8.35878 18.0561ZM7.70003 17.7669C7.65183 17.8258 7.55007 17.8151 7.46973 17.7347C7.3894 17.6651 7.36797 17.5633 7.42153 17.5151C7.46973 17.4562 7.57149 17.4669 7.65183 17.5473C7.72145 17.6169 7.74823 17.724 7.70003 17.7669ZM7.21266 17.2795C7.16446 17.3116 7.07341 17.2795 7.0145 17.1992C6.95559 17.1188 6.95559 17.0278 7.0145 16.9903C7.07341 16.9421 7.16446 16.9796 7.21266 17.0599C7.27157 17.1402 7.27157 17.2367 7.21266 17.2795ZM6.86454 16.76C6.81634 16.8082 6.736 16.7814 6.67709 16.7279C6.61818 16.6582 6.60747 16.5779 6.65567 16.5404C6.70387 16.4922 6.7842 16.519 6.84312 16.5725C6.90203 16.6422 6.91274 16.7225 6.86454 16.76ZM6.50571 16.3637C6.48429 16.4119 6.41466 16.4226 6.35575 16.3851C6.28613 16.353 6.25399 16.2941 6.27541 16.2458C6.29684 16.2137 6.35575 16.1976 6.42537 16.2244C6.495 16.2619 6.52713 16.3208 6.50571 16.3637Z" fill="white"/>
</g>
<defs>
<clipPath id="clip0_776_662">
<rect width="24" height="24" fill="white" transform="translate(0 0.897461)"/>
</clipPath>
</defs>
</svg>
