<svg width="114" height="65" viewBox="0 0 114 65" fill="none" xmlns="http://www.w3.org/2000/svg">
<g clip-path="url(#clip0_453_4996)">
<path fill-rule="evenodd" clip-rule="evenodd" d="M73.2335 2.3032C72.5784 1.25648 71.6133 0.440037 70.4724 -0.0324728C69.3316 -0.504982 68.0718 -0.610052 66.8685 -0.333053L58.328 1.6287C57.4527 1.82987 56.5433 1.82987 55.668 1.6287L47.1275 -0.333053C45.9242 -0.610052 44.6644 -0.504982 43.5236 -0.0324728C42.3827 0.440037 41.4176 1.25648 40.7625 2.3032L36.1075 9.7322C35.6325 10.4922 34.9912 11.1334 34.2312 11.6132L26.8022 16.2682C25.7573 16.9227 24.9421 17.8863 24.4697 19.0252C23.9973 20.164 23.8911 21.4217 24.166 22.6237L26.1277 31.1737C26.3282 32.0474 26.3282 32.9552 26.1277 33.8289L24.166 42.3742C23.8901 43.5768 23.9957 44.8356 24.4681 45.9754C24.9406 47.1153 25.7564 48.0797 26.8022 48.7344L34.2312 53.3895C34.9912 53.8644 35.6325 54.5057 36.1122 55.2657L40.7672 62.6947C42.1067 64.8369 44.6622 65.8962 47.1275 65.3309L55.668 63.3692C56.5433 63.168 57.4527 63.168 58.328 63.3692L66.8733 65.3309C68.0759 65.6069 69.3346 65.5013 70.4745 65.0288C71.6144 64.5564 72.5787 63.7405 73.2335 62.6947L77.8885 55.2657C78.3635 54.5057 79.0047 53.8644 79.7647 53.3895L87.1985 48.7344C88.2444 48.0787 89.0598 47.1133 89.5315 45.9725C90.0031 44.8317 90.1075 43.5723 89.83 42.3694L87.873 33.8289C87.6718 32.9537 87.6718 32.0442 87.873 31.1689L89.8348 22.6237C90.1111 21.4215 90.0062 20.1632 89.5347 19.0234C89.0631 17.8835 88.2482 16.9189 87.2032 16.2634L79.7695 11.6084C79.0106 11.1326 78.3691 10.4911 77.8933 9.7322L73.2335 2.3032ZM70.8442 21.9064C71.138 21.3662 71.2108 20.7331 71.0473 20.1403C70.8838 19.5475 70.4967 19.0412 69.9675 18.728C69.4383 18.4147 68.8082 18.319 68.2098 18.4609C67.6115 18.6028 67.0915 18.9712 66.7593 19.4887L54.338 40.5122L46.8377 33.3302C46.6152 33.1017 46.349 32.9204 46.0549 32.7971C45.7608 32.6737 45.4449 32.6109 45.126 32.6123C44.8071 32.6137 44.4917 32.6793 44.1987 32.8052C43.9057 32.9311 43.641 33.1147 43.4205 33.3451C43.2 33.5755 43.0282 33.8479 42.9152 34.1462C42.8023 34.4444 42.7506 34.7624 42.7632 35.0811C42.7758 35.3997 42.8524 35.7126 42.9885 36.001C43.1247 36.2894 43.3175 36.5474 43.5555 36.7597L53.217 46.0174C53.4756 46.2647 53.7867 46.4503 54.1271 46.5605C54.4675 46.6707 54.8283 46.7025 55.1828 46.6536C55.5372 46.6047 55.876 46.4764 56.1738 46.2783C56.4717 46.0801 56.721 45.8172 56.903 45.5092L70.8442 21.9064Z" fill="#00D1FF"/>
</g>
<defs>
<clipPath id="clip0_453_4996">
<rect width="114" height="65" fill="white"/>
</clipPath>
</defs>
</svg>
